<?xml version="1.0" encoding="UTF-8" standalone="no"?>
<!DOCTYPE svg PUBLIC "-//W3C//DTD SVG 1.1//EN"
 "http://www.w3.org/Graphics/SVG/1.1/DTD/svg11.dtd">
<!-- Generated by graphviz version 2.38.0 (20140413.2041)
 -->
<!-- Title: SimpleWebSocketServerLibrary.SimpleWebSocketServer Pages: 1 -->
<svg width="463pt" height="88pt"
 viewBox="0.00 0.00 463.00 88.00" xmlns="http://www.w3.org/2000/svg" xmlns:xlink="http://www.w3.org/1999/xlink">
<g id="graph0" class="graph" transform="scale(1 1) rotate(0) translate(4 84)">
<title>SimpleWebSocketServerLibrary.SimpleWebSocketServer</title>
<polygon fill="white" stroke="none" points="-4,4 -4,-84 459,-84 459,4 -4,4"/>
<!-- Node1 -->
<g id="node1" class="node"><title>Node1</title>
<polygon fill="#bfbfbf" stroke="black" points="298,-24.5 298,-54.5 455,-54.5 455,-24.5 298,-24.5"/>
<text text-anchor="start" x="306" y="-42.5" font-family="Helvetica,sans-Serif" font-size="10.00">SimpleWebSocketServerLibrary.</text>
<text text-anchor="middle" x="376.5" y="-31.5" font-family="Helvetica,sans-Serif" font-size="10.00">SimpleWebSocketServer</text>
</g>
<!-- Node2 -->
<g id="node2" class="node"><title>Node2</title>
<g id="a_node2"><a xlink:href="interface_simple_web_socket_server_library_1_1_i_web_socket_handler.html" target="_top" xlink:title="Inteface for class: WebSocketHandler. ">
<polygon fill="white" stroke="black" points="0,-49.5 0,-79.5 157,-79.5 157,-49.5 0,-49.5"/>
<text text-anchor="start" x="8" y="-67.5" font-family="Helvetica,sans-Serif" font-size="10.00">SimpleWebSocketServerLibrary.</text>
<text text-anchor="middle" x="78.5" y="-56.5" font-family="Helvetica,sans-Serif" font-size="10.00">IWebSocketHandler</text>
</a>
</g>
</g>
<!-- Node2&#45;&gt;Node1 -->
<g id="edge1" class="edge"><title>Node2&#45;&gt;Node1</title>
<path fill="none" stroke="#9a32cd" stroke-dasharray="5,2" d="M167.366,-57.0788C208.846,-53.5755 257.917,-49.431 297.992,-46.0463"/>
<polygon fill="#9a32cd" stroke="#9a32cd" points="166.94,-53.6023 157.271,-57.9315 167.53,-60.5774 166.94,-53.6023"/>
<text text-anchor="middle" x="227.5" y="-58.5" font-family="Helvetica,sans-Serif" font-size="10.00"> _WebsocketHandler</text>
</g>
<!-- Node3 -->
<g id="node3" class="node"><title>Node3</title>
<g id="a_node3"><a xlink:href="interface_simple_web_socket_server_library_1_1_i_web_socket_http_server.html" target="_top" xlink:title="Interface for WebSocketHttpServer class. ">
<polygon fill="white" stroke="black" points="0,-0.5 0,-30.5 157,-30.5 157,-0.5 0,-0.5"/>
<text text-anchor="start" x="8" y="-18.5" font-family="Helvetica,sans-Serif" font-size="10.00">SimpleWebSocketServerLibrary.</text>
<text text-anchor="middle" x="78.5" y="-7.5" font-family="Helvetica,sans-Serif" font-size="10.00">IWebSocketHttpServer</text>
</a>
</g>
</g>
<!-- Node3&#45;&gt;Node1 -->
<g id="edge2" class="edge"><title>Node3&#45;&gt;Node1</title>
<path fill="none" stroke="#9a32cd" stroke-dasharray="5,2" d="M167.311,-22.432C202.367,-25.219 243.097,-28.4819 280,-31.5 285.804,-31.9747 291.806,-32.4691 297.843,-32.969"/>
<polygon fill="#9a32cd" stroke="#9a32cd" points="167.35,-18.9242 157.105,-21.6212 166.796,-25.9022 167.35,-18.9242"/>
<text text-anchor="middle" x="227.5" y="-34.5" font-family="Helvetica,sans-Serif" font-size="10.00"> _WebSocketHttpServer</text>
</g>
</g>
</svg>
