<?xml version="1.0" encoding="UTF-8" standalone="no"?>
<!DOCTYPE svg PUBLIC "-//W3C//DTD SVG 1.1//EN"
 "http://www.w3.org/Graphics/SVG/1.1/DTD/svg11.dtd">
<!-- Generated by graphviz version 2.38.0 (20140413.2041)
 -->
<!-- Title: SimpleWebSocketServerLibrary.WebSocketServer.StartServer Pages: 1 -->
<svg width="391pt" height="39pt"
 viewBox="0.00 0.00 391.00 39.00" xmlns="http://www.w3.org/2000/svg" xmlns:xlink="http://www.w3.org/1999/xlink">
<g id="graph0" class="graph" transform="scale(1 1) rotate(0) translate(4 35)">
<title>SimpleWebSocketServerLibrary.WebSocketServer.StartServer</title>
<polygon fill="white" stroke="none" points="-4,4 -4,-35 387,-35 387,4 -4,4"/>
<!-- Node5 -->
<g id="node1" class="node"><title>Node5</title>
<polygon fill="#bfbfbf" stroke="black" points="0,-0.5 0,-30.5 157,-30.5 157,-0.5 0,-0.5"/>
<text text-anchor="start" x="8" y="-18.5" font-family="Helvetica,sans-Serif" font-size="10.00">SimpleWebSocketServerLibrary.</text>
<text text-anchor="middle" x="78.5" y="-7.5" font-family="Helvetica,sans-Serif" font-size="10.00">WebSocketServer.StartServer</text>
</g>
<!-- Node6 -->
<g id="node2" class="node"><title>Node6</title>
<g id="a_node2"><a xlink:href="class_simple_web_socket_server_library_1_1_web_socket_handler.html#a2c4b034d46a7eab4e9ef92233ca0d9b8" target="_top" xlink:title="WebSocket Server event handler, fires the event. ">
<polygon fill="white" stroke="black" points="193,-0.5 193,-30.5 383,-30.5 383,-0.5 193,-0.5"/>
<text text-anchor="start" x="201" y="-18.5" font-family="Helvetica,sans-Serif" font-size="10.00">SimpleWebSocketServerLibrary.</text>
<text text-anchor="middle" x="288" y="-7.5" font-family="Helvetica,sans-Serif" font-size="10.00">WebSocketHandler.OnWebsocketEvent</text>
</a>
</g>
</g>
<!-- Node5&#45;&gt;Node6 -->
<g id="edge1" class="edge"><title>Node5&#45;&gt;Node6</title>
<path fill="none" stroke="midnightblue" d="M157.06,-15.5C165.417,-15.5 174.016,-15.5 182.621,-15.5"/>
<polygon fill="midnightblue" stroke="midnightblue" points="182.71,-19.0001 192.71,-15.5 182.71,-12.0001 182.71,-19.0001"/>
</g>
</g>
</svg>
