<?xml version="1.0" encoding="UTF-8" standalone="no"?>
<!DOCTYPE svg PUBLIC "-//W3C//DTD SVG 1.1//EN"
 "http://www.w3.org/Graphics/SVG/1.1/DTD/svg11.dtd">
<!-- Generated by graphviz version 2.38.0 (20140413.2041)
 -->
<!-- Title: SimpleWebSocketServerLibrary.SimpleWebSocketHandler.WebSocketHandler.StartConnection Pages: 1 -->
<svg width="418pt" height="50pt"
 viewBox="0.00 0.00 418.00 50.00" xmlns="http://www.w3.org/2000/svg" xmlns:xlink="http://www.w3.org/1999/xlink">
<g id="graph0" class="graph" transform="scale(1 1) rotate(0) translate(4 46)">
<title>SimpleWebSocketServerLibrary.SimpleWebSocketHandler.WebSocketHandler.StartConnection</title>
<polygon fill="white" stroke="none" points="-4,4 -4,-46 414,-46 414,4 -4,4"/>
<!-- Node8 -->
<g id="node1" class="node"><title>Node8</title>
<polygon fill="#bfbfbf" stroke="black" points="0,-0.5 0,-41.5 185,-41.5 185,-0.5 0,-0.5"/>
<text text-anchor="start" x="8" y="-29.5" font-family="Helvetica,sans-Serif" font-size="10.00">SimpleWebSocketServerLibrary.</text>
<text text-anchor="start" x="8" y="-18.5" font-family="Helvetica,sans-Serif" font-size="10.00">SimpleWebSocketHandler.WebSocket</text>
<text text-anchor="middle" x="92.5" y="-7.5" font-family="Helvetica,sans-Serif" font-size="10.00">Handler.StartConnection</text>
</g>
<!-- Node9 -->
<g id="node2" class="node"><title>Node9</title>
<g id="a_node2"><a xlink:href="class_simple_web_socket_server_library_1_1_w_socket_server_1_1_web_socket_server.html#ade70132fb8fb9150d8366eec2b9831e4" target="_top" xlink:title="Starts the WebSocket server / connection with the client asynchronous. ">
<polygon fill="white" stroke="black" points="221,-0.5 221,-41.5 410,-41.5 410,-0.5 221,-0.5"/>
<text text-anchor="start" x="229" y="-29.5" font-family="Helvetica,sans-Serif" font-size="10.00">SimpleWebSocketServerLibrary.</text>
<text text-anchor="start" x="229" y="-18.5" font-family="Helvetica,sans-Serif" font-size="10.00">WSocketServer.WebSocketServer.Start</text>
<text text-anchor="middle" x="315.5" y="-7.5" font-family="Helvetica,sans-Serif" font-size="10.00">ServerAsync</text>
</a>
</g>
</g>
<!-- Node8&#45;&gt;Node9 -->
<g id="edge1" class="edge"><title>Node8&#45;&gt;Node9</title>
<path fill="none" stroke="midnightblue" d="M185.304,-21C193.651,-21 202.144,-21 210.586,-21"/>
<polygon fill="midnightblue" stroke="midnightblue" points="210.845,-24.5001 220.845,-21 210.845,-17.5001 210.845,-24.5001"/>
</g>
</g>
</svg>
