<?xml version="1.0" encoding="UTF-8" standalone="no"?>
<!DOCTYPE svg PUBLIC "-//W3C//DTD SVG 1.1//EN"
 "http://www.w3.org/Graphics/SVG/1.1/DTD/svg11.dtd">
<!-- Generated by graphviz version 2.38.0 (20140413.2041)
 -->
<!-- Title: SimpleWebSocketServerLibrary.WebSocketHttpServer Pages: 1 -->
<svg width="298pt" height="117pt"
 viewBox="0.00 0.00 298.00 117.00" xmlns="http://www.w3.org/2000/svg" xmlns:xlink="http://www.w3.org/1999/xlink">
<g id="graph0" class="graph" transform="scale(1 1) rotate(0) translate(4 113)">
<title>SimpleWebSocketServerLibrary.WebSocketHttpServer</title>
<polygon fill="white" stroke="none" points="-4,4 -4,-113 294,-113 294,4 -4,4"/>
<!-- Node2 -->
<g id="node1" class="node"><title>Node2</title>
<polygon fill="#bfbfbf" stroke="black" points="56,-0.5 56,-30.5 213,-30.5 213,-0.5 56,-0.5"/>
<text text-anchor="start" x="64" y="-18.5" font-family="Helvetica,sans-Serif" font-size="10.00">SimpleWebSocketServerLibrary.</text>
<text text-anchor="middle" x="134.5" y="-7.5" font-family="Helvetica,sans-Serif" font-size="10.00">WebSocketHttpServer</text>
</g>
<!-- Node3 -->
<g id="node2" class="node"><title>Node3</title>
<g id="a_node2"><a xlink:href="interface_simple_web_socket_server_library_1_1_i_web_socket_http_server.html" target="_top" xlink:title="Interface for WebSocketHttpServer class. ">
<polygon fill="white" stroke="black" points="0,-84 0,-103 115,-103 115,-84 0,-84"/>
<text text-anchor="middle" x="57.5" y="-91" font-family="Helvetica,sans-Serif" font-size="10.00">IWebSocketHttpServer</text>
</a>
</g>
</g>
<!-- Node3&#45;&gt;Node2 -->
<g id="edge1" class="edge"><title>Node3&#45;&gt;Node2</title>
<path fill="none" stroke="midnightblue" d="M73.6864,-76.5238C87.4783,-62.911 107.104,-43.5398 120.296,-30.5198"/>
<polygon fill="midnightblue" stroke="midnightblue" points="70.9914,-74.2661 66.3329,-83.7818 75.9087,-79.2481 70.9914,-74.2661"/>
</g>
<!-- Node4 -->
<g id="node3" class="node"><title>Node4</title>
<g id="a_node3"><a xlink:href="interface_simple_web_socket_server_library_1_1_i_web_socket_handler.html" target="_top" xlink:title="Inteface for class: WebSocketHandler. ">
<polygon fill="white" stroke="black" points="133,-78.5 133,-108.5 290,-108.5 290,-78.5 133,-78.5"/>
<text text-anchor="start" x="141" y="-96.5" font-family="Helvetica,sans-Serif" font-size="10.00">SimpleWebSocketServerLibrary.</text>
<text text-anchor="middle" x="211.5" y="-85.5" font-family="Helvetica,sans-Serif" font-size="10.00">IWebSocketHandler</text>
</a>
</g>
</g>
<!-- Node4&#45;&gt;Node2 -->
<g id="edge2" class="edge"><title>Node4&#45;&gt;Node2</title>
<path fill="none" stroke="#9a32cd" stroke-dasharray="5,2" d="M189.751,-71.0332C176.679,-58.1316 160.408,-42.0716 148.918,-30.7309"/>
<polygon fill="#9a32cd" stroke="#9a32cd" points="187.441,-73.6713 197.017,-78.205 192.358,-68.6892 187.441,-73.6713"/>
<text text-anchor="middle" x="224" y="-52" font-family="Helvetica,sans-Serif" font-size="10.00"> _WebsocketHandler</text>
</g>
</g>
</svg>
