<?xml version="1.0" encoding="UTF-8" standalone="no"?>
<!DOCTYPE svg PUBLIC "-//W3C//DTD SVG 1.1//EN"
 "http://www.w3.org/Graphics/SVG/1.1/DTD/svg11.dtd">
<!-- Generated by graphviz version 2.38.0 (20140413.2041)
 -->
<!-- Title: SimpleWebSocketServerLibrary.WebSocketHandler.OnWebsocketEvent Pages: 1 -->
<svg width="600pt" height="39pt"
 viewBox="0.00 0.00 600.00 39.00" xmlns="http://www.w3.org/2000/svg" xmlns:xlink="http://www.w3.org/1999/xlink">
<g id="graph0" class="graph" transform="scale(1 1) rotate(0) translate(4 35)">
<title>SimpleWebSocketServerLibrary.WebSocketHandler.OnWebsocketEvent</title>
<polygon fill="white" stroke="none" points="-4,4 -4,-35 596,-35 596,4 -4,4"/>
<!-- Node3 -->
<g id="node1" class="node"><title>Node3</title>
<polygon fill="#bfbfbf" stroke="black" points="0,-0.5 0,-30.5 190,-30.5 190,-0.5 0,-0.5"/>
<text text-anchor="start" x="8" y="-18.5" font-family="Helvetica,sans-Serif" font-size="10.00">SimpleWebSocketServerLibrary.</text>
<text text-anchor="middle" x="95" y="-7.5" font-family="Helvetica,sans-Serif" font-size="10.00">WebSocketHandler.OnWebsocketEvent</text>
</g>
<!-- Node4 -->
<g id="node2" class="node"><title>Node4</title>
<g id="a_node2"><a xlink:href="class_simple_web_socket_server_library_1_1_web_socket_server.html#a2b4e4221326fca7776fec8715b7b51a1" target="_top" xlink:title="Starts the WebSocket server / connection with the client. ">
<polygon fill="white" stroke="black" points="226,-0.5 226,-30.5 383,-30.5 383,-0.5 226,-0.5"/>
<text text-anchor="start" x="234" y="-18.5" font-family="Helvetica,sans-Serif" font-size="10.00">SimpleWebSocketServerLibrary.</text>
<text text-anchor="middle" x="304.5" y="-7.5" font-family="Helvetica,sans-Serif" font-size="10.00">WebSocketServer.StartServer</text>
</a>
</g>
</g>
<!-- Node3&#45;&gt;Node4 -->
<g id="edge1" class="edge"><title>Node3&#45;&gt;Node4</title>
<path fill="none" stroke="midnightblue" d="M200.196,-15.5C208.862,-15.5 217.524,-15.5 225.94,-15.5"/>
<polygon fill="midnightblue" stroke="midnightblue" points="200.036,-12.0001 190.036,-15.5 200.036,-19.0001 200.036,-12.0001"/>
</g>
<!-- Node5 -->
<g id="node3" class="node"><title>Node5</title>
<g id="a_node3"><a xlink:href="class_simple_web_socket_server_library_1_1_web_socket_handler.html#af1639502a8f55f7de93d3faeadc23836" target="_top" xlink:title="Starts a connection given the settings set by caller. ">
<polygon fill="white" stroke="black" points="419,-0.5 419,-30.5 592,-30.5 592,-0.5 419,-0.5"/>
<text text-anchor="start" x="427" y="-18.5" font-family="Helvetica,sans-Serif" font-size="10.00">SimpleWebSocketServerLibrary.</text>
<text text-anchor="middle" x="505.5" y="-7.5" font-family="Helvetica,sans-Serif" font-size="10.00">WebSocketHandler.StartConnection</text>
</a>
</g>
</g>
<!-- Node4&#45;&gt;Node5 -->
<g id="edge2" class="edge"><title>Node4&#45;&gt;Node5</title>
<path fill="none" stroke="midnightblue" d="M393.04,-15.5C401.647,-15.5 410.374,-15.5 418.96,-15.5"/>
<polygon fill="midnightblue" stroke="midnightblue" points="393.008,-12.0001 383.008,-15.5 393.008,-19.0001 393.008,-12.0001"/>
</g>
</g>
</svg>
