<?xml version="1.0" encoding="UTF-8" standalone="no"?>
<!DOCTYPE svg PUBLIC "-//W3C//DTD SVG 1.1//EN"
 "http://www.w3.org/Graphics/SVG/1.1/DTD/svg11.dtd">
<!-- Generated by graphviz version 2.38.0 (20140413.2041)
 -->
<!-- Title: SimpleWebSocketServerLibrary.SimpleWebSocketHttpServer.WebSocketHttpServer Pages: 1 -->
<svg width="205pt" height="106pt"
 viewBox="0.00 0.00 205.00 106.00" xmlns="http://www.w3.org/2000/svg" xmlns:xlink="http://www.w3.org/1999/xlink">
<g id="graph0" class="graph" transform="scale(1 1) rotate(0) translate(4 102)">
<title>SimpleWebSocketServerLibrary.SimpleWebSocketHttpServer.WebSocketHttpServer</title>
<polygon fill="white" stroke="none" points="-4,4 -4,-102 201,-102 201,4 -4,4"/>
<!-- Node0 -->
<g id="node1" class="node"><title>Node0</title>
<polygon fill="#bfbfbf" stroke="black" points="0,-0.5 0,-41.5 197,-41.5 197,-0.5 0,-0.5"/>
<text text-anchor="start" x="8" y="-29.5" font-family="Helvetica,sans-Serif" font-size="10.00">SimpleWebSocketServerLibrary.</text>
<text text-anchor="start" x="8" y="-18.5" font-family="Helvetica,sans-Serif" font-size="10.00">SimpleWebSocketHttpServer.WebSocket</text>
<text text-anchor="middle" x="98.5" y="-7.5" font-family="Helvetica,sans-Serif" font-size="10.00">HttpServer</text>
</g>
<!-- Node1 -->
<g id="node2" class="node"><title>Node1</title>
<g id="a_node2"><a xlink:href="interface_simple_web_socket_server_library_1_1_simple_web_socket_http_server_1_1_i_web_socket_http_server.html" target="_top" xlink:title="Interface for WebSocketHttpServer class. ">
<polygon fill="white" stroke="black" points="41,-78.5 41,-97.5 156,-97.5 156,-78.5 41,-78.5"/>
<text text-anchor="middle" x="98.5" y="-85.5" font-family="Helvetica,sans-Serif" font-size="10.00">IWebSocketHttpServer</text>
</a>
</g>
</g>
<!-- Node1&#45;&gt;Node0 -->
<g id="edge1" class="edge"><title>Node1&#45;&gt;Node0</title>
<path fill="none" stroke="midnightblue" d="M98.5,-68.037C98.5,-59.7084 98.5,-49.9358 98.5,-41.5421"/>
<polygon fill="midnightblue" stroke="midnightblue" points="95.0001,-68.2338 98.5,-78.2338 102,-68.2338 95.0001,-68.2338"/>
</g>
</g>
</svg>
