<?xml version="1.0" encoding="UTF-8" standalone="no"?>
<!DOCTYPE svg PUBLIC "-//W3C//DTD SVG 1.1//EN"
 "http://www.w3.org/Graphics/SVG/1.1/DTD/svg11.dtd">
<!-- Generated by graphviz version 2.38.0 (20140413.2041)
 -->
<!-- Title: SimpleWebSocketServerLibrary.WebSocketHttpServer.GenerateAcceptResponse Pages: 1 -->
<svg width="390pt" height="50pt"
 viewBox="0.00 0.00 390.00 50.00" xmlns="http://www.w3.org/2000/svg" xmlns:xlink="http://www.w3.org/1999/xlink">
<g id="graph0" class="graph" transform="scale(1 1) rotate(0) translate(4 46)">
<title>SimpleWebSocketServerLibrary.WebSocketHttpServer.GenerateAcceptResponse</title>
<polygon fill="white" stroke="none" points="-4,4 -4,-46 386,-46 386,4 -4,4"/>
<!-- Node10 -->
<g id="node1" class="node"><title>Node10</title>
<polygon fill="#bfbfbf" stroke="black" points="0,-0.5 0,-41.5 186,-41.5 186,-0.5 0,-0.5"/>
<text text-anchor="start" x="8" y="-29.5" font-family="Helvetica,sans-Serif" font-size="10.00">SimpleWebSocketServerLibrary.</text>
<text text-anchor="start" x="8" y="-18.5" font-family="Helvetica,sans-Serif" font-size="10.00">WebSocketHttpServer.GenerateAccept</text>
<text text-anchor="middle" x="93" y="-7.5" font-family="Helvetica,sans-Serif" font-size="10.00">Response</text>
</g>
<!-- Node11 -->
<g id="node2" class="node"><title>Node11</title>
<g id="a_node2"><a xlink:href="class_simple_web_socket_server_library_1_1_web_socket_http_server.html#a4c3e38a9fce017d222545c88c322e2ab" target="_top" xlink:title="Runs the http server inside a async task. ">
<polygon fill="white" stroke="black" points="222,-6 222,-36 382,-36 382,-6 222,-6"/>
<text text-anchor="start" x="230" y="-24" font-family="Helvetica,sans-Serif" font-size="10.00">SimpleWebSocketServerLibrary.</text>
<text text-anchor="middle" x="302" y="-13" font-family="Helvetica,sans-Serif" font-size="10.00">WebSocketHttpServer.RunServer</text>
</a>
</g>
</g>
<!-- Node10&#45;&gt;Node11 -->
<g id="edge1" class="edge"><title>Node10&#45;&gt;Node11</title>
<path fill="none" stroke="midnightblue" d="M196.34,-21C204.908,-21 213.487,-21 221.841,-21"/>
<polygon fill="midnightblue" stroke="midnightblue" points="196.3,-17.5001 186.3,-21 196.3,-24.5001 196.3,-17.5001"/>
</g>
</g>
</svg>
