<?xml version="1.0" encoding="UTF-8" standalone="no"?>
<!DOCTYPE svg PUBLIC "-//W3C//DTD SVG 1.1//EN"
 "http://www.w3.org/Graphics/SVG/1.1/DTD/svg11.dtd">
<!-- Generated by graphviz version 2.38.0 (20140413.2041)
 -->
<!-- Title: SimpleWebSocketServerLibrary.WSocketServer.WebSocketServer.StartServerAsync Pages: 1 -->
<svg width="418pt" height="50pt"
 viewBox="0.00 0.00 418.00 50.00" xmlns="http://www.w3.org/2000/svg" xmlns:xlink="http://www.w3.org/1999/xlink">
<g id="graph0" class="graph" transform="scale(1 1) rotate(0) translate(4 46)">
<title>SimpleWebSocketServerLibrary.WSocketServer.WebSocketServer.StartServerAsync</title>
<polygon fill="white" stroke="none" points="-4,4 -4,-46 414,-46 414,4 -4,4"/>
<!-- Node9 -->
<g id="node1" class="node"><title>Node9</title>
<polygon fill="#bfbfbf" stroke="black" points="0,-0.5 0,-41.5 189,-41.5 189,-0.5 0,-0.5"/>
<text text-anchor="start" x="8" y="-29.5" font-family="Helvetica,sans-Serif" font-size="10.00">SimpleWebSocketServerLibrary.</text>
<text text-anchor="start" x="8" y="-18.5" font-family="Helvetica,sans-Serif" font-size="10.00">WSocketServer.WebSocketServer.Start</text>
<text text-anchor="middle" x="94.5" y="-7.5" font-family="Helvetica,sans-Serif" font-size="10.00">ServerAsync</text>
</g>
<!-- Node10 -->
<g id="node2" class="node"><title>Node10</title>
<g id="a_node2"><a xlink:href="class_simple_web_socket_server_library_1_1_simple_web_socket_handler_1_1_web_socket_handler.html#aab85fcebece3958e4308996b57415bd5" target="_top" xlink:title="Starts a connection given the settings set by caller. ">
<polygon fill="white" stroke="black" points="225,-0.5 225,-41.5 410,-41.5 410,-0.5 225,-0.5"/>
<text text-anchor="start" x="233" y="-29.5" font-family="Helvetica,sans-Serif" font-size="10.00">SimpleWebSocketServerLibrary.</text>
<text text-anchor="start" x="233" y="-18.5" font-family="Helvetica,sans-Serif" font-size="10.00">SimpleWebSocketHandler.WebSocket</text>
<text text-anchor="middle" x="317.5" y="-7.5" font-family="Helvetica,sans-Serif" font-size="10.00">Handler.StartConnection</text>
</a>
</g>
</g>
<!-- Node9&#45;&gt;Node10 -->
<g id="edge1" class="edge"><title>Node9&#45;&gt;Node10</title>
<path fill="none" stroke="midnightblue" d="M199.478,-21C207.915,-21 216.404,-21 224.746,-21"/>
<polygon fill="midnightblue" stroke="midnightblue" points="199.224,-17.5001 189.224,-21 199.224,-24.5001 199.224,-17.5001"/>
</g>
</g>
</svg>
