<?xml version="1.0" encoding="UTF-8" standalone="no"?>
<!DOCTYPE svg PUBLIC "-//W3C//DTD SVG 1.1//EN"
 "http://www.w3.org/Graphics/SVG/1.1/DTD/svg11.dtd">
<!-- Generated by graphviz version 2.38.0 (20140413.2041)
 -->
<!-- Title: SimpleWebSocketServerLibrary.SimpleWebSocketServer.StopClientAsync Pages: 1 -->
<svg width="401pt" height="39pt"
 viewBox="0.00 0.00 401.00 39.00" xmlns="http://www.w3.org/2000/svg" xmlns:xlink="http://www.w3.org/1999/xlink">
<g id="graph0" class="graph" transform="scale(1 1) rotate(0) translate(4 35)">
<title>SimpleWebSocketServerLibrary.SimpleWebSocketServer.StopClientAsync</title>
<polygon fill="white" stroke="none" points="-4,4 -4,-35 397,-35 397,4 -4,4"/>
<!-- Node47 -->
<g id="node1" class="node"><title>Node47</title>
<polygon fill="#bfbfbf" stroke="black" points="0,-0.5 0,-30.5 200,-30.5 200,-0.5 0,-0.5"/>
<text text-anchor="start" x="8" y="-18.5" font-family="Helvetica,sans-Serif" font-size="10.00">SimpleWebSocketServerLibrary.</text>
<text text-anchor="middle" x="100" y="-7.5" font-family="Helvetica,sans-Serif" font-size="10.00">SimpleWebSocketServer.StopClientAsync</text>
</g>
<!-- Node48 -->
<g id="node2" class="node"><title>Node48</title>
<g id="a_node2"><a xlink:href="interface_simple_web_socket_server_library_1_1_i_web_socket_handler.html#a61b10e6a15660a1ee7e93008bd5a842d" target="_top" xlink:title="Stops a connection with a specific client. ">
<polygon fill="white" stroke="black" points="236,-0.5 236,-30.5 393,-30.5 393,-0.5 236,-0.5"/>
<text text-anchor="start" x="244" y="-18.5" font-family="Helvetica,sans-Serif" font-size="10.00">SimpleWebSocketServerLibrary.</text>
<text text-anchor="middle" x="314.5" y="-7.5" font-family="Helvetica,sans-Serif" font-size="10.00">IWebSocketHandler.StopClient</text>
</a>
</g>
</g>
<!-- Node47&#45;&gt;Node48 -->
<g id="edge1" class="edge"><title>Node47&#45;&gt;Node48</title>
<path fill="none" stroke="midnightblue" d="M200.095,-15.5C208.634,-15.5 217.235,-15.5 225.675,-15.5"/>
<polygon fill="midnightblue" stroke="midnightblue" points="225.877,-19.0001 235.876,-15.5 225.876,-12.0001 225.877,-19.0001"/>
</g>
</g>
</svg>
