<?xml version="1.0" encoding="UTF-8" standalone="no"?>
<!DOCTYPE svg PUBLIC "-//W3C//DTD SVG 1.1//EN"
 "http://www.w3.org/Graphics/SVG/1.1/DTD/svg11.dtd">
<!-- Generated by graphviz version 2.38.0 (20140413.2041)
 -->
<!-- Title: SimpleWebSocketServerLibrary.WebSocketHttpServer.RunServer Pages: 1 -->
<svg width="583pt" height="209pt"
 viewBox="0.00 0.00 583.00 209.00" xmlns="http://www.w3.org/2000/svg" xmlns:xlink="http://www.w3.org/1999/xlink">
<g id="graph0" class="graph" transform="scale(1 1) rotate(0) translate(4 205)">
<title>SimpleWebSocketServerLibrary.WebSocketHttpServer.RunServer</title>
<polygon fill="white" stroke="none" points="-4,4 -4,-205 579,-205 579,4 -4,4"/>
<!-- Node16 -->
<g id="node1" class="node"><title>Node16</title>
<polygon fill="#bfbfbf" stroke="black" points="0,-85.5 0,-115.5 160,-115.5 160,-85.5 0,-85.5"/>
<text text-anchor="start" x="8" y="-103.5" font-family="Helvetica,sans-Serif" font-size="10.00">SimpleWebSocketServerLibrary.</text>
<text text-anchor="middle" x="80" y="-92.5" font-family="Helvetica,sans-Serif" font-size="10.00">WebSocketHttpServer.RunServer</text>
</g>
<!-- Node17 -->
<g id="node2" class="node"><title>Node17</title>
<g id="a_node2"><a xlink:href="class_simple_web_socket_server_library_1_1_web_socket_http_server.html#af10e28d2517b0896ae2d97fac39f1ebc" target="_top" xlink:title="Checks if given url path is one of the base paths, it ignores it otherwise. ">
<polygon fill="white" stroke="black" points="198,-170.5 198,-200.5 380,-200.5 380,-170.5 198,-170.5"/>
<text text-anchor="start" x="206" y="-188.5" font-family="Helvetica,sans-Serif" font-size="10.00">SimpleWebSocketServerLibrary.</text>
<text text-anchor="middle" x="289" y="-177.5" font-family="Helvetica,sans-Serif" font-size="10.00">WebSocketHttpServer.CheckIfBaseUrl</text>
</a>
</g>
</g>
<!-- Node16&#45;&gt;Node17 -->
<g id="edge1" class="edge"><title>Node16&#45;&gt;Node17</title>
<path fill="none" stroke="midnightblue" d="M106.287,-115.723C129.105,-128.962 163.916,-147.941 196,-160.5 202.317,-162.973 208.969,-165.294 215.687,-167.45"/>
<polygon fill="midnightblue" stroke="midnightblue" points="214.959,-170.888 225.546,-170.488 217.02,-164.198 214.959,-170.888"/>
</g>
<!-- Node18 -->
<g id="node3" class="node"><title>Node18</title>
<g id="a_node3"><a xlink:href="class_simple_web_socket_server_library_1_1_web_socket_http_server.html#a9b2c91bb06f0e5caae43bda181893719" target="_top" xlink:title="Checks if the url used by the client contains more than the baseurl, which will be used as a customid...">
<polygon fill="white" stroke="black" points="198,-110 198,-151 380,-151 380,-110 198,-110"/>
<text text-anchor="start" x="206" y="-139" font-family="Helvetica,sans-Serif" font-size="10.00">SimpleWebSocketServerLibrary.</text>
<text text-anchor="start" x="206" y="-128" font-family="Helvetica,sans-Serif" font-size="10.00">WebSocketHttpServer.CheckIfCustom</text>
<text text-anchor="middle" x="289" y="-117" font-family="Helvetica,sans-Serif" font-size="10.00">IdIsSet</text>
</a>
</g>
</g>
<!-- Node16&#45;&gt;Node18 -->
<g id="edge2" class="edge"><title>Node16&#45;&gt;Node18</title>
<path fill="none" stroke="midnightblue" d="M160.144,-111.97C169.196,-113.282 178.512,-114.632 187.792,-115.977"/>
<polygon fill="midnightblue" stroke="midnightblue" points="187.436,-119.462 197.835,-117.433 188.44,-112.534 187.436,-119.462"/>
</g>
<!-- Node19 -->
<g id="node4" class="node"><title>Node19</title>
<g id="a_node4"><a xlink:href="class_simple_web_socket_server_library_1_1_web_socket_http_server.html#aaddc48135437ff389dc811ddee477192" target="_top" xlink:title="Generates the response header for a websocket upgrade. ">
<polygon fill="white" stroke="black" points="196,-50 196,-91 382,-91 382,-50 196,-50"/>
<text text-anchor="start" x="204" y="-79" font-family="Helvetica,sans-Serif" font-size="10.00">SimpleWebSocketServerLibrary.</text>
<text text-anchor="start" x="204" y="-68" font-family="Helvetica,sans-Serif" font-size="10.00">WebSocketHttpServer.GenerateAccept</text>
<text text-anchor="middle" x="289" y="-57" font-family="Helvetica,sans-Serif" font-size="10.00">Response</text>
</a>
</g>
</g>
<!-- Node16&#45;&gt;Node19 -->
<g id="edge3" class="edge"><title>Node16&#45;&gt;Node19</title>
<path fill="none" stroke="midnightblue" d="M160.144,-89.0299C168.511,-87.8172 177.104,-86.5719 185.686,-85.3281"/>
<polygon fill="midnightblue" stroke="midnightblue" points="186.346,-88.7691 195.741,-83.8709 185.342,-81.8414 186.346,-88.7691"/>
</g>
<!-- Node21 -->
<g id="node6" class="node"><title>Node21</title>
<g id="a_node6"><a xlink:href="interface_simple_web_socket_server_library_1_1_i_web_socket_handler.html#a56c619deb9722054b3aa89a38b6d0c78" target="_top" xlink:title="Starts a connection given the settings set by caller. ">
<polygon fill="white" stroke="black" points="201,-0.5 201,-30.5 377,-30.5 377,-0.5 201,-0.5"/>
<text text-anchor="start" x="209" y="-18.5" font-family="Helvetica,sans-Serif" font-size="10.00">SimpleWebSocketServerLibrary.</text>
<text text-anchor="middle" x="289" y="-7.5" font-family="Helvetica,sans-Serif" font-size="10.00">IWebSocketHandler.StartConnection</text>
</a>
</g>
</g>
<!-- Node16&#45;&gt;Node21 -->
<g id="edge5" class="edge"><title>Node16&#45;&gt;Node21</title>
<path fill="none" stroke="midnightblue" d="M106.287,-85.2765C129.105,-72.0378 163.916,-53.0591 196,-40.5 202.317,-38.0273 208.969,-35.7056 215.687,-33.5499"/>
<polygon fill="midnightblue" stroke="midnightblue" points="217.02,-36.8016 225.546,-30.5121 214.959,-30.112 217.02,-36.8016"/>
</g>
<!-- Node20 -->
<g id="node5" class="node"><title>Node20</title>
<g id="a_node5"><a xlink:href="class_simple_web_socket_server_library_1_1_web_socket_http_server.html#a42af9e4548c845fb23df69919c0b0597" target="_top" xlink:title="Generates a hash used for generating the response header when accepting a websocket connection...">
<polygon fill="white" stroke="black" points="418,-55.5 418,-85.5 575,-85.5 575,-55.5 418,-55.5"/>
<text text-anchor="start" x="426" y="-73.5" font-family="Helvetica,sans-Serif" font-size="10.00">SimpleWebSocketServerLibrary.</text>
<text text-anchor="middle" x="496.5" y="-62.5" font-family="Helvetica,sans-Serif" font-size="10.00">WebSocketHttpServer.Hash</text>
</a>
</g>
</g>
<!-- Node19&#45;&gt;Node20 -->
<g id="edge4" class="edge"><title>Node19&#45;&gt;Node20</title>
<path fill="none" stroke="midnightblue" d="M382.231,-70.5C390.651,-70.5 399.166,-70.5 407.547,-70.5"/>
<polygon fill="midnightblue" stroke="midnightblue" points="407.689,-74.0001 417.689,-70.5 407.688,-67.0001 407.689,-74.0001"/>
</g>
</g>
</svg>
