<?xml version="1.0" encoding="UTF-8" standalone="no"?>
<!DOCTYPE svg PUBLIC "-//W3C//DTD SVG 1.1//EN"
 "http://www.w3.org/Graphics/SVG/1.1/DTD/svg11.dtd">
<!-- Generated by graphviz version 2.38.0 (20140413.2041)
 -->
<!-- Title: SimpleWebSocketServerLibrary.WebSocketHttpServer.CheckIfCustomIdIsSet Pages: 1 -->
<svg width="386pt" height="50pt"
 viewBox="0.00 0.00 386.00 50.00" xmlns="http://www.w3.org/2000/svg" xmlns:xlink="http://www.w3.org/1999/xlink">
<g id="graph0" class="graph" transform="scale(1 1) rotate(0) translate(4 46)">
<title>SimpleWebSocketServerLibrary.WebSocketHttpServer.CheckIfCustomIdIsSet</title>
<polygon fill="white" stroke="none" points="-4,4 -4,-46 382,-46 382,4 -4,4"/>
<!-- Node6 -->
<g id="node1" class="node"><title>Node6</title>
<polygon fill="#bfbfbf" stroke="black" points="0,-0.5 0,-41.5 182,-41.5 182,-0.5 0,-0.5"/>
<text text-anchor="start" x="8" y="-29.5" font-family="Helvetica,sans-Serif" font-size="10.00">SimpleWebSocketServerLibrary.</text>
<text text-anchor="start" x="8" y="-18.5" font-family="Helvetica,sans-Serif" font-size="10.00">WebSocketHttpServer.CheckIfCustom</text>
<text text-anchor="middle" x="91" y="-7.5" font-family="Helvetica,sans-Serif" font-size="10.00">IdIsSet</text>
</g>
<!-- Node7 -->
<g id="node2" class="node"><title>Node7</title>
<g id="a_node2"><a xlink:href="class_simple_web_socket_server_library_1_1_web_socket_http_server.html#a4c3e38a9fce017d222545c88c322e2ab" target="_top" xlink:title="Runs the http server inside a async task. ">
<polygon fill="white" stroke="black" points="218,-6 218,-36 378,-36 378,-6 218,-6"/>
<text text-anchor="start" x="226" y="-24" font-family="Helvetica,sans-Serif" font-size="10.00">SimpleWebSocketServerLibrary.</text>
<text text-anchor="middle" x="298" y="-13" font-family="Helvetica,sans-Serif" font-size="10.00">WebSocketHttpServer.RunServer</text>
</a>
</g>
</g>
<!-- Node6&#45;&gt;Node7 -->
<g id="edge1" class="edge"><title>Node6&#45;&gt;Node7</title>
<path fill="none" stroke="midnightblue" d="M192.222,-21C200.768,-21 209.335,-21 217.686,-21"/>
<polygon fill="midnightblue" stroke="midnightblue" points="192.214,-17.5001 182.214,-21 192.214,-24.5001 192.214,-17.5001"/>
</g>
</g>
</svg>
