<?xml version="1.0" encoding="UTF-8" standalone="no"?>
<!DOCTYPE svg PUBLIC "-//W3C//DTD SVG 1.1//EN"
 "http://www.w3.org/Graphics/SVG/1.1/DTD/svg11.dtd">
<!-- Generated by graphviz version 2.38.0 (20140413.2041)
 -->
<!-- Title: SimpleWebSocketServerLibrary.WebSocketServer Pages: 1 -->
<svg width="547pt" height="88pt"
 viewBox="0.00 0.00 547.00 88.00" xmlns="http://www.w3.org/2000/svg" xmlns:xlink="http://www.w3.org/1999/xlink">
<g id="graph0" class="graph" transform="scale(1 1) rotate(0) translate(4 84)">
<title>SimpleWebSocketServerLibrary.WebSocketServer</title>
<polygon fill="white" stroke="none" points="-4,4 -4,-84 543,-84 543,4 -4,4"/>
<!-- Node1 -->
<g id="node1" class="node"><title>Node1</title>
<polygon fill="#bfbfbf" stroke="black" points="382,-20.5 382,-50.5 539,-50.5 539,-20.5 382,-20.5"/>
<text text-anchor="start" x="390" y="-38.5" font-family="Helvetica,sans-Serif" font-size="10.00">SimpleWebSocketServerLibrary.</text>
<text text-anchor="middle" x="460.5" y="-27.5" font-family="Helvetica,sans-Serif" font-size="10.00">WebSocketServer</text>
</g>
<!-- Node2 -->
<g id="node2" class="node"><title>Node2</title>
<g id="a_node2"><a xlink:href="class_simple_web_socket_server_library_1_1_web_socket_handler.html" target="_top" xlink:title="Class contains handler for handeling multiple websocket clients and hubs. ">
<polygon fill="white" stroke="black" points="140,-49.5 140,-79.5 297,-79.5 297,-49.5 140,-49.5"/>
<text text-anchor="start" x="148" y="-67.5" font-family="Helvetica,sans-Serif" font-size="10.00">SimpleWebSocketServerLibrary.</text>
<text text-anchor="middle" x="218.5" y="-56.5" font-family="Helvetica,sans-Serif" font-size="10.00">WebSocketHandler</text>
</a>
</g>
</g>
<!-- Node2&#45;&gt;Node1 -->
<g id="edge1" class="edge"><title>Node2&#45;&gt;Node1</title>
<path fill="none" stroke="#9a32cd" stroke-dasharray="5,2" d="M307.075,-53.9181C331.528,-50.9633 357.924,-47.7738 381.767,-44.8928"/>
<polygon fill="#9a32cd" stroke="#9a32cd" points="306.598,-50.4502 297.09,-55.1246 307.437,-57.3996 306.598,-50.4502"/>
<text text-anchor="middle" x="339.5" y="-56.5" font-family="Helvetica,sans-Serif" font-size="10.00"> _Handler</text>
</g>
<!-- Node3 -->
<g id="node3" class="node"><title>Node3</title>
<g id="a_node3"><a xlink:href="interface_simple_web_socket_server_library_1_1_i_web_socket_handler.html" target="_top" xlink:title="Inteface for class: WebSocketHandler. ">
<polygon fill="white" stroke="black" points="0,-55 0,-74 103,-74 103,-55 0,-55"/>
<text text-anchor="middle" x="51.5" y="-62" font-family="Helvetica,sans-Serif" font-size="10.00">IWebSocketHandler</text>
</a>
</g>
</g>
<!-- Node3&#45;&gt;Node2 -->
<g id="edge2" class="edge"><title>Node3&#45;&gt;Node2</title>
<path fill="none" stroke="midnightblue" d="M113.587,-64.5C122.134,-64.5 131.011,-64.5 139.815,-64.5"/>
<polygon fill="midnightblue" stroke="midnightblue" points="113.352,-61.0001 103.352,-64.5 113.352,-68.0001 113.352,-61.0001"/>
</g>
<!-- Node4 -->
<g id="node4" class="node"><title>Node4</title>
<g id="a_node4"><a xlink:href="class_simple_web_socket_server_library_1_1_web_socket_client_info.html" target="_top" xlink:title="Provides information about a connected client. ">
<polygon fill="white" stroke="black" points="140,-0.5 140,-30.5 297,-30.5 297,-0.5 140,-0.5"/>
<text text-anchor="start" x="148" y="-18.5" font-family="Helvetica,sans-Serif" font-size="10.00">SimpleWebSocketServerLibrary.</text>
<text text-anchor="middle" x="218.5" y="-7.5" font-family="Helvetica,sans-Serif" font-size="10.00">WebSocketClientInfo</text>
</a>
</g>
</g>
<!-- Node4&#45;&gt;Node1 -->
<g id="edge3" class="edge"><title>Node4&#45;&gt;Node1</title>
<path fill="none" stroke="#9a32cd" stroke-dasharray="5,2" d="M307.201,-19.3735C325.961,-20.4766 345.652,-21.8414 364,-23.5 369.825,-24.0266 375.842,-24.6334 381.89,-25.2888"/>
<polygon fill="#9a32cd" stroke="#9a32cd" points="307.372,-15.8776 297.189,-18.8038 306.974,-22.8663 307.372,-15.8776"/>
<text text-anchor="middle" x="339.5" y="-26.5" font-family="Helvetica,sans-Serif" font-size="10.00"> _ClientInfo</text>
</g>
</g>
</svg>
