<?xml version="1.0" encoding="UTF-8" standalone="no"?>
<!DOCTYPE svg PUBLIC "-//W3C//DTD SVG 1.1//EN"
 "http://www.w3.org/Graphics/SVG/1.1/DTD/svg11.dtd">
<!-- Generated by graphviz version 2.38.0 (20140413.2041)
 -->
<!-- Title: SimpleWebSocketServerLibrary.WebSocketServer Pages: 1 -->
<!--zoomable 88 -->
<svg id="main" version="1.1" xmlns="http://www.w3.org/2000/svg" xmlns:xlink="http://www.w3.org/1999/xlink" xml:space="preserve" onload="init(evt)">
<style type="text/css"><![CDATA[
.edge:hover path { stroke: red; }
.edge:hover polygon { stroke: red; fill: red; }
]]></style>
<script type="text/javascript"><![CDATA[
var edges = document.getElementsByTagName('g');
if (edges && edges.length) {
  for (var i=0;i<edges.length;i++) {
    if (edges[i].id.substr(0,4)=='edge') {
      edges[i].setAttribute('class','edge');
    }
  }
}
]]></script>
        <defs>
                <circle id="rim" cx="0" cy="0" r="7"/>
                <circle id="rim2" cx="0" cy="0" r="3.5"/>
                <g id="zoomPlus">
                        <use xlink:href="#rim" fill="#404040">
                                <set attributeName="fill" to="#808080" begin="zoomplus.mouseover" end="zoomplus.mouseout"/>
                        </use>
                        <path d="M-4,0h8M0,-4v8" fill="none" stroke="white" stroke-width="1.5" pointer-events="none"/>
                </g>
                <g id="zoomMin">
                        <use xlink:href="#rim" fill="#404040">
                                <set attributeName="fill" to="#808080" begin="zoomminus.mouseover" end="zoomminus.mouseout"/>
                        </use>
                        <path d="M-4,0h8" fill="none" stroke="white" stroke-width="1.5" pointer-events="none"/>
                </g>
                <g id="dirArrow">
                        <path fill="none" stroke="white" stroke-width="1.5" d="M0,-3.0v7 M-2.5,-0.5L0,-3.0L2.5,-0.5"/>
                </g>
               <g id="resetDef">
                       <use xlink:href="#rim2" fill="#404040">
                               <set attributeName="fill" to="#808080" begin="reset.mouseover" end="reset.mouseout"/>
                       </use>
               </g>
        </defs>

<script type="text/javascript">
var viewWidth = 547;
var viewHeight = 88;
var sectionId = 'dynsection-0';
</script>
<script xlink:href="svgpan.js"/>
<svg id="graph" class="graph">
<g id="viewport">
<title>SimpleWebSocketServerLibrary.WebSocketServer</title>
<polygon fill="white" stroke="none" points="-4,4 -4,-84 543,-84 543,4 -4,4"/>
<!-- Node1 -->
<g id="node1" class="node"><title>Node1</title>
<polygon fill="#bfbfbf" stroke="black" points="382,-20.5 382,-50.5 539,-50.5 539,-20.5 382,-20.5"/>
<text text-anchor="start" x="390" y="-38.5" font-family="Helvetica,sans-Serif" font-size="10.00">SimpleWebSocketServerLibrary.</text>
<text text-anchor="middle" x="460.5" y="-27.5" font-family="Helvetica,sans-Serif" font-size="10.00">WebSocketServer</text>
</g>
<!-- Node2 -->
<g id="node2" class="node"><title>Node2</title>
<g id="a_node2"><a xlink:href="class_simple_web_socket_server_library_1_1_web_socket_handler.html" target="_top" xlink:title="Class contains handler for handeling multiple websocket clients and hubs. ">
<polygon fill="white" stroke="black" points="140,-49.5 140,-79.5 297,-79.5 297,-49.5 140,-49.5"/>
<text text-anchor="start" x="148" y="-67.5" font-family="Helvetica,sans-Serif" font-size="10.00">SimpleWebSocketServerLibrary.</text>
<text text-anchor="middle" x="218.5" y="-56.5" font-family="Helvetica,sans-Serif" font-size="10.00">WebSocketHandler</text>
</a>
</g>
</g>
<!-- Node2&#45;&gt;Node1 -->
<g id="edge1" class="edge"><title>Node2&#45;&gt;Node1</title>
<path fill="none" stroke="#9a32cd" stroke-dasharray="5,2" d="M307.075,-53.9181C331.528,-50.9633 357.924,-47.7738 381.767,-44.8928"/>
<polygon fill="#9a32cd" stroke="#9a32cd" points="306.598,-50.4502 297.09,-55.1246 307.437,-57.3996 306.598,-50.4502"/>
<text text-anchor="middle" x="339.5" y="-56.5" font-family="Helvetica,sans-Serif" font-size="10.00"> _Handler</text>
</g>
<!-- Node3 -->
<g id="node3" class="node"><title>Node3</title>
<g id="a_node3"><a xlink:href="interface_simple_web_socket_server_library_1_1_i_web_socket_handler.html" target="_top" xlink:title="Inteface for class: WebSocketHandler. ">
<polygon fill="white" stroke="black" points="0,-55 0,-74 103,-74 103,-55 0,-55"/>
<text text-anchor="middle" x="51.5" y="-62" font-family="Helvetica,sans-Serif" font-size="10.00">IWebSocketHandler</text>
</a>
</g>
</g>
<!-- Node3&#45;&gt;Node2 -->
<g id="edge2" class="edge"><title>Node3&#45;&gt;Node2</title>
<path fill="none" stroke="midnightblue" d="M113.587,-64.5C122.134,-64.5 131.011,-64.5 139.815,-64.5"/>
<polygon fill="midnightblue" stroke="midnightblue" points="113.352,-61.0001 103.352,-64.5 113.352,-68.0001 113.352,-61.0001"/>
</g>
<!-- Node4 -->
<g id="node4" class="node"><title>Node4</title>
<g id="a_node4"><a xlink:href="class_simple_web_socket_server_library_1_1_web_socket_client_info.html" target="_top" xlink:title="Provides information about a connected client. ">
<polygon fill="white" stroke="black" points="140,-0.5 140,-30.5 297,-30.5 297,-0.5 140,-0.5"/>
<text text-anchor="start" x="148" y="-18.5" font-family="Helvetica,sans-Serif" font-size="10.00">SimpleWebSocketServerLibrary.</text>
<text text-anchor="middle" x="218.5" y="-7.5" font-family="Helvetica,sans-Serif" font-size="10.00">WebSocketClientInfo</text>
</a>
</g>
</g>
<!-- Node4&#45;&gt;Node1 -->
<g id="edge3" class="edge"><title>Node4&#45;&gt;Node1</title>
<path fill="none" stroke="#9a32cd" stroke-dasharray="5,2" d="M307.201,-19.3735C325.961,-20.4766 345.652,-21.8414 364,-23.5 369.825,-24.0266 375.842,-24.6334 381.89,-25.2888"/>
<polygon fill="#9a32cd" stroke="#9a32cd" points="307.372,-15.8776 297.189,-18.8038 306.974,-22.8663 307.372,-15.8776"/>
<text text-anchor="middle" x="339.5" y="-26.5" font-family="Helvetica,sans-Serif" font-size="10.00"> _ClientInfo</text>
</g>
</g>
</svg>
        <g id="navigator" transform="translate(0 0)" fill="#404254">
                <rect fill="#f2f5e9" fill-opacity="0.5" stroke="#606060" stroke-width=".5" x="0" y="0" width="60" height="60"/>
                <use id="zoomplus" xlink:href="#zoomPlus" x="17" y="9" onmousedown="handleZoom(evt,'in')"/>
                <use id="zoomminus" xlink:href="#zoomMin" x="42" y="9" onmousedown="handleZoom(evt,'out')"/>
                <use id="reset" xlink:href="#resetDef" x="30" y="36" onmousedown="handleReset()"/>
                <g id="arrowUp" xlink:href="#dirArrow" transform="translate(30 24)" onmousedown="handlePan(0,-1)">
                  <use xlink:href="#rim" fill="#404040">
                        <set attributeName="fill" to="#808080" begin="arrowUp.mouseover" end="arrowUp.mouseout"/>
                  </use>
                  <path fill="none" stroke="white" stroke-width="1.5" d="M0,-3.0v7 M-2.5,-0.5L0,-3.0L2.5,-0.5"/>
                </g>
                <g id="arrowRight" xlink:href="#dirArrow" transform="rotate(90) translate(36 -43)" onmousedown="handlePan(1,0)">
                  <use xlink:href="#rim" fill="#404040">
                        <set attributeName="fill" to="#808080" begin="arrowRight.mouseover" end="arrowRight.mouseout"/>
                  </use>
                  <path fill="none" stroke="white" stroke-width="1.5" d="M0,-3.0v7 M-2.5,-0.5L0,-3.0L2.5,-0.5"/>
                </g>
                <g id="arrowDown" xlink:href="#dirArrow" transform="rotate(180) translate(-30 -48)" onmousedown="handlePan(0,1)">
                  <use xlink:href="#rim" fill="#404040">
                        <set attributeName="fill" to="#808080" begin="arrowDown.mouseover" end="arrowDown.mouseout"/>
                  </use>
                  <path fill="none" stroke="white" stroke-width="1.5" d="M0,-3.0v7 M-2.5,-0.5L0,-3.0L2.5,-0.5"/>
                </g>
                <g id="arrowLeft" xlink:href="#dirArrow" transform="rotate(270) translate(-36 17)" onmousedown="handlePan(-1,0)">
                  <use xlink:href="#rim" fill="#404040">
                        <set attributeName="fill" to="#808080" begin="arrowLeft.mouseover" end="arrowLeft.mouseout"/>
                  </use>
                  <path fill="none" stroke="white" stroke-width="1.5" d="M0,-3.0v7 M-2.5,-0.5L0,-3.0L2.5,-0.5"/>
                </g>
        </g>
        <svg viewBox="0 0 15 15" width="100%" height="30px" preserveAspectRatio="xMaxYMin meet">
         <g id="arrow_out" transform="scale(0.3 0.3)">
          <a xlink:href="class_simple_web_socket_server_library_1_1_web_socket_server__coll__graph_org.svg" target="_base">
           <rect id="button" ry="5" rx="5" y="6" x="6" height="38" width="38"
                fill="#f2f5e9" fill-opacity="0.5" stroke="#606060" stroke-width="1.0"/>
           <path id="arrow"
             d="M 11.500037,31.436501 C 11.940474,20.09759 22.043105,11.32322 32.158766,21.979434 L 37.068811,17.246167 C 37.068811,17.246167 37.088388,32 37.088388,32 L 22.160133,31.978069 C 22.160133,31.978069 26.997745,27.140456 26.997745,27.140456 C 18.528582,18.264221 13.291696,25.230495 11.500037,31.436501 z"
             style="fill:#404040;"/>
          </a>
         </g>
        </svg>
</svg>
