<?xml version="1.0" encoding="UTF-8" standalone="no"?>
<!DOCTYPE svg PUBLIC "-//W3C//DTD SVG 1.1//EN"
 "http://www.w3.org/Graphics/SVG/1.1/DTD/svg11.dtd">
<!-- Generated by graphviz version 2.38.0 (20140413.2041)
 -->
<!-- Title: SimpleWebSocketServerLibrary.SimpleWebSocketServer.StartServerAsync Pages: 1 -->
<svg width="409pt" height="39pt"
 viewBox="0.00 0.00 409.00 39.00" xmlns="http://www.w3.org/2000/svg" xmlns:xlink="http://www.w3.org/1999/xlink">
<g id="graph0" class="graph" transform="scale(1 1) rotate(0) translate(4 35)">
<title>SimpleWebSocketServerLibrary.SimpleWebSocketServer.StartServerAsync</title>
<polygon fill="white" stroke="none" points="-4,4 -4,-35 405,-35 405,4 -4,4"/>
<!-- Node35 -->
<g id="node1" class="node"><title>Node35</title>
<polygon fill="#bfbfbf" stroke="black" points="0,-0.5 0,-30.5 203,-30.5 203,-0.5 0,-0.5"/>
<text text-anchor="start" x="8" y="-18.5" font-family="Helvetica,sans-Serif" font-size="10.00">SimpleWebSocketServerLibrary.</text>
<text text-anchor="middle" x="101.5" y="-7.5" font-family="Helvetica,sans-Serif" font-size="10.00">SimpleWebSocketServer.StartServerAsync</text>
</g>
<!-- Node36 -->
<g id="node2" class="node"><title>Node36</title>
<g id="a_node2"><a xlink:href="interface_simple_web_socket_server_library_1_1_i_web_socket_http_server.html#a8a18cd4fe349ed1653f2befb1a8467e8" target="_top" xlink:title="SimpleWebSocketServerLibrary.\lIWebSocketHttpServer.RunServer">
<polygon fill="white" stroke="black" points="239,-0.5 239,-30.5 401,-30.5 401,-0.5 239,-0.5"/>
<text text-anchor="start" x="247" y="-18.5" font-family="Helvetica,sans-Serif" font-size="10.00">SimpleWebSocketServerLibrary.</text>
<text text-anchor="middle" x="320" y="-7.5" font-family="Helvetica,sans-Serif" font-size="10.00">IWebSocketHttpServer.RunServer</text>
</a>
</g>
</g>
<!-- Node35&#45;&gt;Node36 -->
<g id="edge1" class="edge"><title>Node35&#45;&gt;Node36</title>
<path fill="none" stroke="midnightblue" d="M203.144,-15.5C211.623,-15.5 220.164,-15.5 228.558,-15.5"/>
<polygon fill="midnightblue" stroke="midnightblue" points="228.71,-19.0001 238.71,-15.5 228.71,-12.0001 228.71,-19.0001"/>
</g>
</g>
</svg>
