<?xml version="1.0" encoding="UTF-8" standalone="no"?>
<!DOCTYPE svg PUBLIC "-//W3C//DTD SVG 1.1//EN"
 "http://www.w3.org/Graphics/SVG/1.1/DTD/svg11.dtd">
<!-- Generated by graphviz version 2.38.0 (20140413.2041)
 -->
<!-- Title: SimpleWebSocketServerLibrary.WebSocketHandler.StartConnection Pages: 1 -->
<svg width="600pt" height="39pt"
 viewBox="0.00 0.00 600.00 39.00" xmlns="http://www.w3.org/2000/svg" xmlns:xlink="http://www.w3.org/1999/xlink">
<g id="graph0" class="graph" transform="scale(1 1) rotate(0) translate(4 35)">
<title>SimpleWebSocketServerLibrary.WebSocketHandler.StartConnection</title>
<polygon fill="white" stroke="none" points="-4,4 -4,-35 596,-35 596,4 -4,4"/>
<!-- Node10 -->
<g id="node1" class="node"><title>Node10</title>
<polygon fill="#bfbfbf" stroke="black" points="0,-0.5 0,-30.5 173,-30.5 173,-0.5 0,-0.5"/>
<text text-anchor="start" x="8" y="-18.5" font-family="Helvetica,sans-Serif" font-size="10.00">SimpleWebSocketServerLibrary.</text>
<text text-anchor="middle" x="86.5" y="-7.5" font-family="Helvetica,sans-Serif" font-size="10.00">WebSocketHandler.StartConnection</text>
</g>
<!-- Node11 -->
<g id="node2" class="node"><title>Node11</title>
<g id="a_node2"><a xlink:href="class_simple_web_socket_server_library_1_1_web_socket_server.html#a2b4e4221326fca7776fec8715b7b51a1" target="_top" xlink:title="Starts the WebSocket server / connection with the client. ">
<polygon fill="white" stroke="black" points="209,-0.5 209,-30.5 366,-30.5 366,-0.5 209,-0.5"/>
<text text-anchor="start" x="217" y="-18.5" font-family="Helvetica,sans-Serif" font-size="10.00">SimpleWebSocketServerLibrary.</text>
<text text-anchor="middle" x="287.5" y="-7.5" font-family="Helvetica,sans-Serif" font-size="10.00">WebSocketServer.StartServer</text>
</a>
</g>
</g>
<!-- Node10&#45;&gt;Node11 -->
<g id="edge1" class="edge"><title>Node10&#45;&gt;Node11</title>
<path fill="none" stroke="midnightblue" d="M173.049,-15.5C181.512,-15.5 190.112,-15.5 198.598,-15.5"/>
<polygon fill="midnightblue" stroke="midnightblue" points="198.876,-19.0001 208.876,-15.5 198.876,-12.0001 198.876,-19.0001"/>
</g>
<!-- Node12 -->
<g id="node3" class="node"><title>Node12</title>
<g id="a_node3"><a xlink:href="class_simple_web_socket_server_library_1_1_web_socket_handler.html#a2c4b034d46a7eab4e9ef92233ca0d9b8" target="_top" xlink:title="WebSocket Server event handler, fires the event. ">
<polygon fill="white" stroke="black" points="402,-0.5 402,-30.5 592,-30.5 592,-0.5 402,-0.5"/>
<text text-anchor="start" x="410" y="-18.5" font-family="Helvetica,sans-Serif" font-size="10.00">SimpleWebSocketServerLibrary.</text>
<text text-anchor="middle" x="497" y="-7.5" font-family="Helvetica,sans-Serif" font-size="10.00">WebSocketHandler.OnWebsocketEvent</text>
</a>
</g>
</g>
<!-- Node11&#45;&gt;Node12 -->
<g id="edge2" class="edge"><title>Node11&#45;&gt;Node12</title>
<path fill="none" stroke="midnightblue" d="M366.06,-15.5C374.417,-15.5 383.016,-15.5 391.621,-15.5"/>
<polygon fill="midnightblue" stroke="midnightblue" points="391.71,-19.0001 401.71,-15.5 391.71,-12.0001 391.71,-19.0001"/>
</g>
</g>
</svg>
