<?xml version="1.0" encoding="UTF-8" standalone="no"?>
<!DOCTYPE svg PUBLIC "-//W3C//DTD SVG 1.1//EN"
 "http://www.w3.org/Graphics/SVG/1.1/DTD/svg11.dtd">
<!-- Generated by graphviz version 2.38.0 (20140413.2041)
 -->
<!-- Title: SimpleWebSocketServerLibrary.SimpleWebSocketServer.SendTextMessage Pages: 1 -->
<svg width="421pt" height="39pt"
 viewBox="0.00 0.00 421.00 39.00" xmlns="http://www.w3.org/2000/svg" xmlns:xlink="http://www.w3.org/1999/xlink">
<g id="graph0" class="graph" transform="scale(1 1) rotate(0) translate(4 35)">
<title>SimpleWebSocketServerLibrary.SimpleWebSocketServer.SendTextMessage</title>
<polygon fill="white" stroke="none" points="-4,4 -4,-35 417,-35 417,4 -4,4"/>
<!-- Node26 -->
<g id="node1" class="node"><title>Node26</title>
<polygon fill="#bfbfbf" stroke="black" points="0,-0.5 0,-30.5 209,-30.5 209,-0.5 0,-0.5"/>
<text text-anchor="start" x="8" y="-18.5" font-family="Helvetica,sans-Serif" font-size="10.00">SimpleWebSocketServerLibrary.</text>
<text text-anchor="middle" x="104.5" y="-7.5" font-family="Helvetica,sans-Serif" font-size="10.00">SimpleWebSocketServer.SendTextMessage</text>
</g>
<!-- Node27 -->
<g id="node2" class="node"><title>Node27</title>
<g id="a_node2"><a xlink:href="interface_simple_web_socket_server_library_1_1_i_web_socket_handler.html#ab4b024dcdf145597dd260fe22d0e246a" target="_top" xlink:title="Send a message to a specific client. ">
<polygon fill="white" stroke="black" points="245,-0.5 245,-30.5 413,-30.5 413,-0.5 245,-0.5"/>
<text text-anchor="start" x="253" y="-18.5" font-family="Helvetica,sans-Serif" font-size="10.00">SimpleWebSocketServerLibrary.</text>
<text text-anchor="middle" x="329" y="-7.5" font-family="Helvetica,sans-Serif" font-size="10.00">IWebSocketHandler.SendMessage</text>
</a>
</g>
</g>
<!-- Node26&#45;&gt;Node27 -->
<g id="edge1" class="edge"><title>Node26&#45;&gt;Node27</title>
<path fill="none" stroke="midnightblue" d="M209.259,-15.5C217.716,-15.5 226.231,-15.5 234.608,-15.5"/>
<polygon fill="midnightblue" stroke="midnightblue" points="234.743,-19.0001 244.743,-15.5 234.743,-12.0001 234.743,-19.0001"/>
</g>
</g>
</svg>
