<?xml version="1.0" encoding="UTF-8" standalone="no"?>
<!DOCTYPE svg PUBLIC "-//W3C//DTD SVG 1.1//EN"
 "http://www.w3.org/Graphics/SVG/1.1/DTD/svg11.dtd">
<!-- Generated by graphviz version 2.38.0 (20140413.2041)
 -->
<!-- Title: SimpleWebSocketServerLibrary.SimpleWebSocketServer.SendPingMessage Pages: 1 -->
<svg width="440pt" height="50pt"
 viewBox="0.00 0.00 440.00 50.00" xmlns="http://www.w3.org/2000/svg" xmlns:xlink="http://www.w3.org/1999/xlink">
<g id="graph0" class="graph" transform="scale(1 1) rotate(0) translate(4 46)">
<title>SimpleWebSocketServerLibrary.SimpleWebSocketServer.SendPingMessage</title>
<polygon fill="white" stroke="none" points="-4,4 -4,-46 436,-46 436,4 -4,4"/>
<!-- Node14 -->
<g id="node1" class="node"><title>Node14</title>
<polygon fill="#bfbfbf" stroke="black" points="0,-6 0,-36 209,-36 209,-6 0,-6"/>
<text text-anchor="start" x="8" y="-24" font-family="Helvetica,sans-Serif" font-size="10.00">SimpleWebSocketServerLibrary.</text>
<text text-anchor="middle" x="104.5" y="-13" font-family="Helvetica,sans-Serif" font-size="10.00">SimpleWebSocketServer.SendPingMessage</text>
</g>
<!-- Node15 -->
<g id="node2" class="node"><title>Node15</title>
<g id="a_node2"><a xlink:href="interface_simple_web_socket_server_library_1_1_simple_web_socket_handler_1_1_i_web_socket_handler.html#a3d9b246d14117c85014486b3f5bb71c8" target="_top" xlink:title="Send a message to a specific client. ">
<polygon fill="white" stroke="black" points="245,-0.5 245,-41.5 432,-41.5 432,-0.5 245,-0.5"/>
<text text-anchor="start" x="253" y="-29.5" font-family="Helvetica,sans-Serif" font-size="10.00">SimpleWebSocketServerLibrary.</text>
<text text-anchor="start" x="253" y="-18.5" font-family="Helvetica,sans-Serif" font-size="10.00">SimpleWebSocketHandler.IWebSocket</text>
<text text-anchor="middle" x="338.5" y="-7.5" font-family="Helvetica,sans-Serif" font-size="10.00">Handler.SendMessage</text>
</a>
</g>
</g>
<!-- Node14&#45;&gt;Node15 -->
<g id="edge1" class="edge"><title>Node14&#45;&gt;Node15</title>
<path fill="none" stroke="midnightblue" d="M209.286,-21C217.691,-21 226.184,-21 234.583,-21"/>
<polygon fill="midnightblue" stroke="midnightblue" points="234.771,-24.5001 244.771,-21 234.771,-17.5001 234.771,-24.5001"/>
</g>
</g>
</svg>
