<?xml version="1.0" encoding="UTF-8" standalone="no"?>
<!DOCTYPE svg PUBLIC "-//W3C//DTD SVG 1.1//EN"
 "http://www.w3.org/Graphics/SVG/1.1/DTD/svg11.dtd">
<!-- Generated by graphviz version 2.38.0 (20140413.2041)
 -->
<!-- Title: SimpleWebSocketServerLibrary.WebSocketServer.SendMessage Pages: 1 -->
<svg width="361pt" height="39pt"
 viewBox="0.00 0.00 361.00 39.00" xmlns="http://www.w3.org/2000/svg" xmlns:xlink="http://www.w3.org/1999/xlink">
<g id="graph0" class="graph" transform="scale(1 1) rotate(0) translate(4 35)">
<title>SimpleWebSocketServerLibrary.WebSocketServer.SendMessage</title>
<polygon fill="white" stroke="none" points="-4,4 -4,-35 357,-35 357,4 -4,4"/>
<!-- Node3 -->
<g id="node1" class="node"><title>Node3</title>
<polygon fill="#bfbfbf" stroke="black" points="0,-0.5 0,-30.5 160,-30.5 160,-0.5 0,-0.5"/>
<text text-anchor="start" x="8" y="-18.5" font-family="Helvetica,sans-Serif" font-size="10.00">SimpleWebSocketServerLibrary.</text>
<text text-anchor="middle" x="80" y="-7.5" font-family="Helvetica,sans-Serif" font-size="10.00">WebSocketServer.SendMessage</text>
</g>
<!-- Node4 -->
<g id="node2" class="node"><title>Node4</title>
<g id="a_node2"><a xlink:href="class_simple_web_socket_server_library_1_1_web_socket_server.html#a75c59497bfaad1204b46fa2e08c4df23" target="_top" xlink:title="Stops the websocket server and sends over a reason. ">
<polygon fill="white" stroke="black" points="196,-0.5 196,-30.5 353,-30.5 353,-0.5 196,-0.5"/>
<text text-anchor="start" x="204" y="-18.5" font-family="Helvetica,sans-Serif" font-size="10.00">SimpleWebSocketServerLibrary.</text>
<text text-anchor="middle" x="274.5" y="-7.5" font-family="Helvetica,sans-Serif" font-size="10.00">WebSocketServer.StopServer</text>
</a>
</g>
</g>
<!-- Node3&#45;&gt;Node4 -->
<g id="edge1" class="edge"><title>Node3&#45;&gt;Node4</title>
<path fill="none" stroke="midnightblue" d="M170.173,-15.5C178.771,-15.5 187.446,-15.5 195.919,-15.5"/>
<polygon fill="midnightblue" stroke="midnightblue" points="170.13,-12.0001 160.13,-15.5 170.13,-19.0001 170.13,-12.0001"/>
</g>
</g>
</svg>
