<?xml version="1.0" encoding="UTF-8" standalone="no"?>
<!DOCTYPE svg PUBLIC "-//W3C//DTD SVG 1.1//EN"
 "http://www.w3.org/Graphics/SVG/1.1/DTD/svg11.dtd">
<!-- Generated by graphviz version 2.38.0 (20140413.2041)
 -->
<!-- Title: SimpleWebSocketServerLibrary.IWebSocketHandler Pages: 1 -->
<svg width="165pt" height="106pt"
 viewBox="0.00 0.00 165.00 106.00" xmlns="http://www.w3.org/2000/svg" xmlns:xlink="http://www.w3.org/1999/xlink">
<g id="graph0" class="graph" transform="scale(1 1) rotate(0) translate(4 102)">
<title>SimpleWebSocketServerLibrary.IWebSocketHandler</title>
<polygon fill="white" stroke="none" points="-4,4 -4,-102 161,-102 161,4 -4,4"/>
<!-- Node0 -->
<g id="node1" class="node"><title>Node0</title>
<polygon fill="#bfbfbf" stroke="black" points="0,-67.5 0,-97.5 157,-97.5 157,-67.5 0,-67.5"/>
<text text-anchor="start" x="8" y="-85.5" font-family="Helvetica,sans-Serif" font-size="10.00">SimpleWebSocketServerLibrary.</text>
<text text-anchor="middle" x="78.5" y="-74.5" font-family="Helvetica,sans-Serif" font-size="10.00">IWebSocketHandler</text>
</g>
<!-- Node1 -->
<g id="node2" class="node"><title>Node1</title>
<g id="a_node2"><a xlink:href="class_simple_web_socket_server_library_1_1_web_socket_handler.html" target="_top" xlink:title="Class contains handler for handeling multiple websocket clients and hubs. ">
<polygon fill="white" stroke="black" points="0,-0.5 0,-30.5 157,-30.5 157,-0.5 0,-0.5"/>
<text text-anchor="start" x="8" y="-18.5" font-family="Helvetica,sans-Serif" font-size="10.00">SimpleWebSocketServerLibrary.</text>
<text text-anchor="middle" x="78.5" y="-7.5" font-family="Helvetica,sans-Serif" font-size="10.00">WebSocketHandler</text>
</a>
</g>
</g>
<!-- Node0&#45;&gt;Node1 -->
<g id="edge1" class="edge"><title>Node0&#45;&gt;Node1</title>
<path fill="none" stroke="midnightblue" d="M78.5,-57.1081C78.5,-48.1539 78.5,-38.3227 78.5,-30.5765"/>
<polygon fill="midnightblue" stroke="midnightblue" points="75.0001,-57.3959 78.5,-67.396 82.0001,-57.396 75.0001,-57.3959"/>
</g>
</g>
</svg>
