<?xml version="1.0" encoding="UTF-8" standalone="no"?>
<!DOCTYPE svg PUBLIC "-//W3C//DTD SVG 1.1//EN"
 "http://www.w3.org/Graphics/SVG/1.1/DTD/svg11.dtd">
<!-- Generated by graphviz version 2.38.0 (20140413.2041)
 -->
<!-- Title: SimpleWebSocketServerLibrary.SimpleWebSocketHandler.IWebSocketHandler.StopClient Pages: 1 -->
<svg width="431pt" height="88pt"
 viewBox="0.00 0.00 431.00 88.00" xmlns="http://www.w3.org/2000/svg" xmlns:xlink="http://www.w3.org/1999/xlink">
<g id="graph0" class="graph" transform="scale(1 1) rotate(0) translate(4 84)">
<title>SimpleWebSocketServerLibrary.SimpleWebSocketHandler.IWebSocketHandler.StopClient</title>
<polygon fill="white" stroke="none" points="-4,4 -4,-84 427,-84 427,4 -4,4"/>
<!-- Node21 -->
<g id="node1" class="node"><title>Node21</title>
<polygon fill="#bfbfbf" stroke="black" points="0,-19 0,-60 187,-60 187,-19 0,-19"/>
<text text-anchor="start" x="8" y="-48" font-family="Helvetica,sans-Serif" font-size="10.00">SimpleWebSocketServerLibrary.</text>
<text text-anchor="start" x="8" y="-37" font-family="Helvetica,sans-Serif" font-size="10.00">SimpleWebSocketHandler.IWebSocket</text>
<text text-anchor="middle" x="93.5" y="-26" font-family="Helvetica,sans-Serif" font-size="10.00">Handler.StopClient</text>
</g>
<!-- Node22 -->
<g id="node2" class="node"><title>Node22</title>
<g id="a_node2"><a xlink:href="class_simple_web_socket_server_library_1_1_simple_web_socket_server.html#ad0559ffe3b936e25e202b205fa2931a7" target="_top" xlink:title="Stops a connection with a specific client asynchronous. Can provide reason. ">
<polygon fill="white" stroke="black" points="223,-49.5 223,-79.5 423,-79.5 423,-49.5 223,-49.5"/>
<text text-anchor="start" x="231" y="-67.5" font-family="Helvetica,sans-Serif" font-size="10.00">SimpleWebSocketServerLibrary.</text>
<text text-anchor="middle" x="323" y="-56.5" font-family="Helvetica,sans-Serif" font-size="10.00">SimpleWebSocketServer.StopClientAsync</text>
</a>
</g>
</g>
<!-- Node21&#45;&gt;Node22 -->
<g id="edge1" class="edge"><title>Node21&#45;&gt;Node22</title>
<path fill="none" stroke="midnightblue" d="M197.061,-50.7704C205.646,-51.7139 214.318,-52.6668 222.877,-53.6074"/>
<polygon fill="midnightblue" stroke="midnightblue" points="197.355,-47.2818 187.033,-49.6685 196.591,-54.2399 197.355,-47.2818"/>
</g>
<!-- Node23 -->
<g id="node3" class="node"><title>Node23</title>
<g id="a_node3"><a xlink:href="class_simple_web_socket_server_library_1_1_simple_web_socket_server.html#a15254218104e0b1a6af5363c7b0810a6" target="_top" xlink:title="Stops a connection with a specific client synchronous. Can provide reason. ">
<polygon fill="white" stroke="black" points="236.5,-0.5 236.5,-30.5 409.5,-30.5 409.5,-0.5 236.5,-0.5"/>
<text text-anchor="start" x="244.5" y="-18.5" font-family="Helvetica,sans-Serif" font-size="10.00">SimpleWebSocketServerLibrary.</text>
<text text-anchor="middle" x="323" y="-7.5" font-family="Helvetica,sans-Serif" font-size="10.00">SimpleWebSocketServer.StopClient</text>
</a>
</g>
</g>
<!-- Node21&#45;&gt;Node23 -->
<g id="edge2" class="edge"><title>Node21&#45;&gt;Node23</title>
<path fill="none" stroke="midnightblue" d="M196.991,-28.6878C210.078,-27.3071 223.367,-25.9052 236.154,-24.5563"/>
<polygon fill="midnightblue" stroke="midnightblue" points="196.611,-25.2084 187.033,-29.7383 197.345,-32.1698 196.611,-25.2084"/>
</g>
</g>
</svg>
