<?xml version="1.0" encoding="UTF-8" standalone="no"?>
<!DOCTYPE svg PUBLIC "-//W3C//DTD SVG 1.1//EN"
 "http://www.w3.org/Graphics/SVG/1.1/DTD/svg11.dtd">
<!-- Generated by graphviz version 2.38.0 (20140413.2041)
 -->
<!-- Title: SimpleWebSocketServerLibrary.IWebSocketHandler.SendMessage Pages: 1 -->
<svg width="452pt" height="405pt"
 viewBox="0.00 0.00 452.00 405.00" xmlns="http://www.w3.org/2000/svg" xmlns:xlink="http://www.w3.org/1999/xlink">
<g id="graph0" class="graph" transform="scale(1 1) rotate(0) translate(4 401)">
<title>SimpleWebSocketServerLibrary.IWebSocketHandler.SendMessage</title>
<polygon fill="white" stroke="none" points="-4,4 -4,-401 448,-401 448,4 -4,4"/>
<!-- Node1 -->
<g id="node1" class="node"><title>Node1</title>
<polygon fill="#bfbfbf" stroke="black" points="0,-174.5 0,-204.5 168,-204.5 168,-174.5 0,-174.5"/>
<text text-anchor="start" x="8" y="-192.5" font-family="Helvetica,sans-Serif" font-size="10.00">SimpleWebSocketServerLibrary.</text>
<text text-anchor="middle" x="84" y="-181.5" font-family="Helvetica,sans-Serif" font-size="10.00">IWebSocketHandler.SendMessage</text>
</g>
<!-- Node2 -->
<g id="node2" class="node"><title>Node2</title>
<g id="a_node2"><a xlink:href="class_simple_web_socket_server_library_1_1_simple_web_socket_server.html#aefe75fd888dea52bd64108dd03abed61" target="_top" xlink:title="Overload method for sending text messages to a specific client, using it&#39;s id, asynchronous. ">
<polygon fill="white" stroke="black" points="206,-366.5 206,-396.5 442,-396.5 442,-366.5 206,-366.5"/>
<text text-anchor="start" x="214" y="-384.5" font-family="Helvetica,sans-Serif" font-size="10.00">SimpleWebSocketServerLibrary.</text>
<text text-anchor="middle" x="324" y="-373.5" font-family="Helvetica,sans-Serif" font-size="10.00">SimpleWebSocketServer.SendTextMessageAsync</text>
</a>
</g>
</g>
<!-- Node1&#45;&gt;Node2 -->
<g id="edge1" class="edge"><title>Node1&#45;&gt;Node2</title>
<path fill="none" stroke="midnightblue" d="M95.1874,-214.105C111.998,-251.454 149.228,-321.869 204,-357.5 209.3,-360.948 214.992,-363.917 220.911,-366.473"/>
<polygon fill="midnightblue" stroke="midnightblue" points="98.2026,-212.265 90.9898,-204.504 91.7888,-215.069 98.2026,-212.265"/>
</g>
<!-- Node3 -->
<g id="node3" class="node"><title>Node3</title>
<g id="a_node3"><a xlink:href="class_simple_web_socket_server_library_1_1_simple_web_socket_server.html#a4ea5479402f769e2e73a8bcc06b654b1" target="_top" xlink:title="Overload method for sending text messages to a specific client, using it&#39;s id, synchronous. ">
<polygon fill="white" stroke="black" points="219.5,-317.5 219.5,-347.5 428.5,-347.5 428.5,-317.5 219.5,-317.5"/>
<text text-anchor="start" x="227.5" y="-335.5" font-family="Helvetica,sans-Serif" font-size="10.00">SimpleWebSocketServerLibrary.</text>
<text text-anchor="middle" x="324" y="-324.5" font-family="Helvetica,sans-Serif" font-size="10.00">SimpleWebSocketServer.SendTextMessage</text>
</a>
</g>
</g>
<!-- Node1&#45;&gt;Node3 -->
<g id="edge2" class="edge"><title>Node1&#45;&gt;Node3</title>
<path fill="none" stroke="midnightblue" d="M101.655,-212.734C122.428,-239.891 160.547,-284.092 204,-307.5 211.248,-311.405 219.05,-314.7 227.068,-317.481"/>
<polygon fill="midnightblue" stroke="midnightblue" points="104.331,-210.469 95.5352,-204.563 98.7288,-214.665 104.331,-210.469"/>
</g>
<!-- Node4 -->
<g id="node4" class="node"><title>Node4</title>
<g id="a_node4"><a xlink:href="class_simple_web_socket_server_library_1_1_simple_web_socket_server.html#a9d94bdf3e2964c65cafc62a80102a28c" target="_top" xlink:title="Sends a binary &quot;message&quot; to a specific client asynchronous. ">
<polygon fill="white" stroke="black" points="235,-257 235,-298 413,-298 413,-257 235,-257"/>
<text text-anchor="start" x="243" y="-286" font-family="Helvetica,sans-Serif" font-size="10.00">SimpleWebSocketServerLibrary.</text>
<text text-anchor="start" x="243" y="-275" font-family="Helvetica,sans-Serif" font-size="10.00">SimpleWebSocketServer.SendBinary</text>
<text text-anchor="middle" x="324" y="-264" font-family="Helvetica,sans-Serif" font-size="10.00">MessageAsync</text>
</a>
</g>
</g>
<!-- Node1&#45;&gt;Node4 -->
<g id="edge3" class="edge"><title>Node1&#45;&gt;Node4</title>
<path fill="none" stroke="midnightblue" d="M120.821,-209.374C144.013,-221.63 175.16,-236.965 204,-247.5 213.906,-251.119 224.431,-254.46 234.964,-257.495"/>
<polygon fill="midnightblue" stroke="midnightblue" points="122.184,-206.134 111.715,-204.505 118.883,-212.307 122.184,-206.134"/>
</g>
<!-- Node5 -->
<g id="node5" class="node"><title>Node5</title>
<g id="a_node5"><a xlink:href="class_simple_web_socket_server_library_1_1_simple_web_socket_server.html#ac6ddccc7dd4b54d16721d2dca025dc58" target="_top" xlink:title="Sends a binary &quot;message&quot; to a specific client synchronous. ">
<polygon fill="white" stroke="black" points="235,-197 235,-238 413,-238 413,-197 235,-197"/>
<text text-anchor="start" x="243" y="-226" font-family="Helvetica,sans-Serif" font-size="10.00">SimpleWebSocketServerLibrary.</text>
<text text-anchor="start" x="243" y="-215" font-family="Helvetica,sans-Serif" font-size="10.00">SimpleWebSocketServer.SendBinary</text>
<text text-anchor="middle" x="324" y="-204" font-family="Helvetica,sans-Serif" font-size="10.00">Message</text>
</a>
</g>
</g>
<!-- Node1&#45;&gt;Node5 -->
<g id="edge4" class="edge"><title>Node1&#45;&gt;Node5</title>
<path fill="none" stroke="midnightblue" d="M178.213,-200.466C196.891,-202.664 216.458,-204.966 234.953,-207.142"/>
<polygon fill="midnightblue" stroke="midnightblue" points="178.581,-196.986 168.241,-199.293 177.763,-203.938 178.581,-196.986"/>
</g>
<!-- Node6 -->
<g id="node6" class="node"><title>Node6</title>
<g id="a_node6"><a xlink:href="class_simple_web_socket_server_library_1_1_simple_web_socket_server.html#a7f0eca90a424040685527ac873c31229" target="_top" xlink:title="Sends a ping message to all clients asynchronous, can have message. ">
<polygon fill="white" stroke="black" points="205.5,-147.5 205.5,-177.5 442.5,-177.5 442.5,-147.5 205.5,-147.5"/>
<text text-anchor="start" x="213.5" y="-165.5" font-family="Helvetica,sans-Serif" font-size="10.00">SimpleWebSocketServerLibrary.</text>
<text text-anchor="middle" x="324" y="-154.5" font-family="Helvetica,sans-Serif" font-size="10.00">SimpleWebSocketServer.SendPingMessageAsync</text>
</a>
</g>
</g>
<!-- Node1&#45;&gt;Node6 -->
<g id="edge5" class="edge"><title>Node1&#45;&gt;Node6</title>
<path fill="none" stroke="midnightblue" d="M178.247,-178.922C187.197,-177.906 196.351,-176.868 205.493,-175.831"/>
<polygon fill="midnightblue" stroke="midnightblue" points="177.783,-175.452 168.241,-180.057 178.572,-182.407 177.783,-175.452"/>
</g>
<!-- Node7 -->
<g id="node7" class="node"><title>Node7</title>
<g id="a_node7"><a xlink:href="class_simple_web_socket_server_library_1_1_simple_web_socket_server.html#ab47f01467513ad98f0d9de69d41e12a5" target="_top" xlink:title="Sends a ping message to all clients synchronous, can have message. ">
<polygon fill="white" stroke="black" points="219.5,-98.5 219.5,-128.5 428.5,-128.5 428.5,-98.5 219.5,-98.5"/>
<text text-anchor="start" x="227.5" y="-116.5" font-family="Helvetica,sans-Serif" font-size="10.00">SimpleWebSocketServerLibrary.</text>
<text text-anchor="middle" x="324" y="-105.5" font-family="Helvetica,sans-Serif" font-size="10.00">SimpleWebSocketServer.SendPingMessage</text>
</a>
</g>
</g>
<!-- Node1&#45;&gt;Node7 -->
<g id="edge6" class="edge"><title>Node1&#45;&gt;Node7</title>
<path fill="none" stroke="midnightblue" d="M125.002,-170.002C147.745,-159.519 176.994,-147.031 204,-138.5 215.776,-134.78 228.384,-131.454 240.829,-128.538"/>
<polygon fill="midnightblue" stroke="midnightblue" points="123.26,-166.953 115.679,-174.355 126.221,-173.296 123.26,-166.953"/>
</g>
<!-- Node8 -->
<g id="node8" class="node"><title>Node8</title>
<g id="a_node8"><a xlink:href="class_simple_web_socket_server_library_1_1_simple_web_socket_server.html#a20bd2a898b9465f492a5b19c4a8e1021" target="_top" xlink:title="Send pong message to all available clients asynchronous, can have message. ">
<polygon fill="white" stroke="black" points="204,-49.5 204,-79.5 444,-79.5 444,-49.5 204,-49.5"/>
<text text-anchor="start" x="212" y="-67.5" font-family="Helvetica,sans-Serif" font-size="10.00">SimpleWebSocketServerLibrary.</text>
<text text-anchor="middle" x="324" y="-56.5" font-family="Helvetica,sans-Serif" font-size="10.00">SimpleWebSocketServer.SendPongMessageAsync</text>
</a>
</g>
</g>
<!-- Node1&#45;&gt;Node8 -->
<g id="edge7" class="edge"><title>Node1&#45;&gt;Node8</title>
<path fill="none" stroke="midnightblue" d="M105.2,-166.955C127.196,-143.862 164.542,-108.705 204,-89.5 211.972,-85.6197 220.532,-82.3398 229.271,-79.5676"/>
<polygon fill="midnightblue" stroke="midnightblue" points="102.621,-164.589 98.3482,-174.284 107.734,-169.37 102.621,-164.589"/>
</g>
<!-- Node9 -->
<g id="node9" class="node"><title>Node9</title>
<g id="a_node9"><a xlink:href="class_simple_web_socket_server_library_1_1_simple_web_socket_server.html#af1f35a19ed0272c0bd02bf51f175b4b7" target="_top" xlink:title="Send pong message to all available clients synchronous, can have message. ">
<polygon fill="white" stroke="black" points="218,-0.5 218,-30.5 430,-30.5 430,-0.5 218,-0.5"/>
<text text-anchor="start" x="226" y="-18.5" font-family="Helvetica,sans-Serif" font-size="10.00">SimpleWebSocketServerLibrary.</text>
<text text-anchor="middle" x="324" y="-7.5" font-family="Helvetica,sans-Serif" font-size="10.00">SimpleWebSocketServer.SendPongMessage</text>
</a>
</g>
</g>
<!-- Node1&#45;&gt;Node9 -->
<g id="edge8" class="edge"><title>Node1&#45;&gt;Node9</title>
<path fill="none" stroke="midnightblue" d="M97.3144,-165.259C115.726,-131.628 153.713,-71.4678 204,-40.5 210.291,-36.6256 217.087,-33.3433 224.131,-30.5636"/>
<polygon fill="midnightblue" stroke="midnightblue" points="94.0623,-163.919 92.4414,-174.389 100.238,-167.215 94.0623,-163.919"/>
</g>
</g>
</svg>
