<?xml version="1.0" encoding="UTF-8" standalone="no"?>
<!DOCTYPE svg PUBLIC "-//W3C//DTD SVG 1.1//EN"
 "http://www.w3.org/Graphics/SVG/1.1/DTD/svg11.dtd">
<!-- Generated by graphviz version 2.38.0 (20140413.2041)
 -->
<!-- Title: SimpleWebSocketServerLibrary.IWebSocketHttpServer.RunServer Pages: 1 -->
<svg width="409pt" height="88pt"
 viewBox="0.00 0.00 409.00 88.00" xmlns="http://www.w3.org/2000/svg" xmlns:xlink="http://www.w3.org/1999/xlink">
<g id="graph0" class="graph" transform="scale(1 1) rotate(0) translate(4 84)">
<title>SimpleWebSocketServerLibrary.IWebSocketHttpServer.RunServer</title>
<polygon fill="white" stroke="none" points="-4,4 -4,-84 405,-84 405,4 -4,4"/>
<!-- Node1 -->
<g id="node1" class="node"><title>Node1</title>
<polygon fill="#bfbfbf" stroke="black" points="0,-24.5 0,-54.5 162,-54.5 162,-24.5 0,-24.5"/>
<text text-anchor="start" x="8" y="-42.5" font-family="Helvetica,sans-Serif" font-size="10.00">SimpleWebSocketServerLibrary.</text>
<text text-anchor="middle" x="81" y="-31.5" font-family="Helvetica,sans-Serif" font-size="10.00">IWebSocketHttpServer.RunServer</text>
</g>
<!-- Node2 -->
<g id="node2" class="node"><title>Node2</title>
<g id="a_node2"><a xlink:href="class_simple_web_socket_server_library_1_1_simple_web_socket_server.html#a14730d592f2fdd3278a8df1403ebd672" target="_top" xlink:title="Starts running the server async. ">
<polygon fill="white" stroke="black" points="198,-49.5 198,-79.5 401,-79.5 401,-49.5 198,-49.5"/>
<text text-anchor="start" x="206" y="-67.5" font-family="Helvetica,sans-Serif" font-size="10.00">SimpleWebSocketServerLibrary.</text>
<text text-anchor="middle" x="299.5" y="-56.5" font-family="Helvetica,sans-Serif" font-size="10.00">SimpleWebSocketServer.StartServerAsync</text>
</a>
</g>
</g>
<!-- Node1&#45;&gt;Node2 -->
<g id="edge1" class="edge"><title>Node1&#45;&gt;Node2</title>
<path fill="none" stroke="midnightblue" d="M171.959,-49.8878C180.513,-50.8757 189.225,-51.8817 197.872,-52.8801"/>
<polygon fill="midnightblue" stroke="midnightblue" points="172.337,-46.4084 162.001,-48.738 171.534,-53.3621 172.337,-46.4084"/>
</g>
<!-- Node3 -->
<g id="node3" class="node"><title>Node3</title>
<g id="a_node3"><a xlink:href="class_simple_web_socket_server_library_1_1_simple_web_socket_server.html#ad354c38a3f5583fe213ab913085c320a" target="_top" xlink:title="Starts running the server async. ">
<polygon fill="white" stroke="black" points="211.5,-0.5 211.5,-30.5 387.5,-30.5 387.5,-0.5 211.5,-0.5"/>
<text text-anchor="start" x="219.5" y="-18.5" font-family="Helvetica,sans-Serif" font-size="10.00">SimpleWebSocketServerLibrary.</text>
<text text-anchor="middle" x="299.5" y="-7.5" font-family="Helvetica,sans-Serif" font-size="10.00">SimpleWebSocketServer.StartServer</text>
</a>
</g>
</g>
<!-- Node1&#45;&gt;Node3 -->
<g id="edge2" class="edge"><title>Node1&#45;&gt;Node3</title>
<path fill="none" stroke="midnightblue" d="M172.243,-29.4961C185.126,-28.068 198.358,-26.6011 211.183,-25.1794"/>
<polygon fill="midnightblue" stroke="midnightblue" points="171.555,-26.0509 162.001,-30.6315 172.326,-33.0083 171.555,-26.0509"/>
</g>
</g>
</svg>
