<?xml version="1.0" encoding="UTF-8" standalone="no"?>
<!DOCTYPE svg PUBLIC "-//W3C//DTD SVG 1.1//EN"
 "http://www.w3.org/Graphics/SVG/1.1/DTD/svg11.dtd">
<!-- Generated by graphviz version 2.38.0 (20140413.2041)
 -->
<!-- Title: SimpleWebSocketServerLibrary.IWebSocketHandler.StopClient Pages: 1 -->
<svg width="401pt" height="88pt"
 viewBox="0.00 0.00 401.00 88.00" xmlns="http://www.w3.org/2000/svg" xmlns:xlink="http://www.w3.org/1999/xlink">
<g id="graph0" class="graph" transform="scale(1 1) rotate(0) translate(4 84)">
<title>SimpleWebSocketServerLibrary.IWebSocketHandler.StopClient</title>
<polygon fill="white" stroke="none" points="-4,4 -4,-84 397,-84 397,4 -4,4"/>
<!-- Node22 -->
<g id="node1" class="node"><title>Node22</title>
<polygon fill="#bfbfbf" stroke="black" points="0,-24.5 0,-54.5 157,-54.5 157,-24.5 0,-24.5"/>
<text text-anchor="start" x="8" y="-42.5" font-family="Helvetica,sans-Serif" font-size="10.00">SimpleWebSocketServerLibrary.</text>
<text text-anchor="middle" x="78.5" y="-31.5" font-family="Helvetica,sans-Serif" font-size="10.00">IWebSocketHandler.StopClient</text>
</g>
<!-- Node23 -->
<g id="node2" class="node"><title>Node23</title>
<g id="a_node2"><a xlink:href="class_simple_web_socket_server_library_1_1_simple_web_socket_server.html#ad0559ffe3b936e25e202b205fa2931a7" target="_top" xlink:title="Stops a connection with a specific client asynchronous. Can provide reason. ">
<polygon fill="white" stroke="black" points="193,-49.5 193,-79.5 393,-79.5 393,-49.5 193,-49.5"/>
<text text-anchor="start" x="201" y="-67.5" font-family="Helvetica,sans-Serif" font-size="10.00">SimpleWebSocketServerLibrary.</text>
<text text-anchor="middle" x="293" y="-56.5" font-family="Helvetica,sans-Serif" font-size="10.00">SimpleWebSocketServer.StopClientAsync</text>
</a>
</g>
</g>
<!-- Node22&#45;&gt;Node23 -->
<g id="edge1" class="edge"><title>Node22&#45;&gt;Node23</title>
<path fill="none" stroke="midnightblue" d="M167.304,-49.8299C175.731,-50.8213 184.317,-51.8315 192.843,-52.8344"/>
<polygon fill="midnightblue" stroke="midnightblue" points="167.46,-46.3242 157.119,-48.6317 166.642,-53.2762 167.46,-46.3242"/>
</g>
<!-- Node24 -->
<g id="node3" class="node"><title>Node24</title>
<g id="a_node3"><a xlink:href="class_simple_web_socket_server_library_1_1_simple_web_socket_server.html#a15254218104e0b1a6af5363c7b0810a6" target="_top" xlink:title="Stops a connection with a specific client synchronous. Can provide reason. ">
<polygon fill="white" stroke="black" points="206.5,-0.5 206.5,-30.5 379.5,-30.5 379.5,-0.5 206.5,-0.5"/>
<text text-anchor="start" x="214.5" y="-18.5" font-family="Helvetica,sans-Serif" font-size="10.00">SimpleWebSocketServerLibrary.</text>
<text text-anchor="middle" x="293" y="-7.5" font-family="Helvetica,sans-Serif" font-size="10.00">SimpleWebSocketServer.StopClient</text>
</a>
</g>
</g>
<!-- Node22&#45;&gt;Node24 -->
<g id="edge2" class="edge"><title>Node22&#45;&gt;Node24</title>
<path fill="none" stroke="midnightblue" d="M167.358,-29.5772C180.243,-28.122 193.5,-26.6247 206.34,-25.1745"/>
<polygon fill="midnightblue" stroke="midnightblue" points="166.663,-26.1333 157.119,-30.7336 167.449,-33.0891 166.663,-26.1333"/>
</g>
</g>
</svg>
