<?xml version="1.0" encoding="UTF-8" standalone="no"?>
<!DOCTYPE svg PUBLIC "-//W3C//DTD SVG 1.1//EN"
 "http://www.w3.org/Graphics/SVG/1.1/DTD/svg11.dtd">
<!-- Generated by graphviz version 2.38.0 (20140413.2041)
 -->
<!-- Title: SimpleWebSocketServerLibrary.SimpleWebSocketHttpServer.WebSocketHttpServer Pages: 1 -->
<svg width="519pt" height="88pt"
 viewBox="0.00 0.00 519.00 88.00" xmlns="http://www.w3.org/2000/svg" xmlns:xlink="http://www.w3.org/1999/xlink">
<g id="graph0" class="graph" transform="scale(1 1) rotate(0) translate(4 84)">
<title>SimpleWebSocketServerLibrary.SimpleWebSocketHttpServer.WebSocketHttpServer</title>
<polygon fill="white" stroke="none" points="-4,4 -4,-84 515,-84 515,4 -4,4"/>
<!-- Node2 -->
<g id="node1" class="node"><title>Node2</title>
<polygon fill="#bfbfbf" stroke="black" points="314,-24.5 314,-65.5 511,-65.5 511,-24.5 314,-24.5"/>
<text text-anchor="start" x="322" y="-53.5" font-family="Helvetica,sans-Serif" font-size="10.00">SimpleWebSocketServerLibrary.</text>
<text text-anchor="start" x="322" y="-42.5" font-family="Helvetica,sans-Serif" font-size="10.00">SimpleWebSocketHttpServer.WebSocket</text>
<text text-anchor="middle" x="412.5" y="-31.5" font-family="Helvetica,sans-Serif" font-size="10.00">HttpServer</text>
</g>
<!-- Node3 -->
<g id="node2" class="node"><title>Node3</title>
<g id="a_node2"><a xlink:href="interface_simple_web_socket_server_library_1_1_simple_web_socket_http_server_1_1_i_web_socket_http_server.html" target="_top" xlink:title="Interface for WebSocketHttpServer class. ">
<polygon fill="white" stroke="black" points="36,-60.5 36,-79.5 151,-79.5 151,-60.5 36,-60.5"/>
<text text-anchor="middle" x="93.5" y="-67.5" font-family="Helvetica,sans-Serif" font-size="10.00">IWebSocketHttpServer</text>
</a>
</g>
</g>
<!-- Node3&#45;&gt;Node2 -->
<g id="edge1" class="edge"><title>Node3&#45;&gt;Node2</title>
<path fill="none" stroke="midnightblue" d="M161.249,-64.7359C205.549,-61.2422 264.433,-56.5983 313.953,-52.693"/>
<polygon fill="midnightblue" stroke="midnightblue" points="160.867,-61.255 151.173,-65.5305 161.417,-68.2334 160.867,-61.255"/>
</g>
<!-- Node4 -->
<g id="node3" class="node"><title>Node4</title>
<g id="a_node3"><a xlink:href="interface_simple_web_socket_server_library_1_1_simple_web_socket_handler_1_1_i_web_socket_handler.html" target="_top" xlink:title="Inteface for class: WebSocketHandler. ">
<polygon fill="white" stroke="black" points="0,-0.5 0,-41.5 187,-41.5 187,-0.5 0,-0.5"/>
<text text-anchor="start" x="8" y="-29.5" font-family="Helvetica,sans-Serif" font-size="10.00">SimpleWebSocketServerLibrary.</text>
<text text-anchor="start" x="8" y="-18.5" font-family="Helvetica,sans-Serif" font-size="10.00">SimpleWebSocketHandler.IWebSocket</text>
<text text-anchor="middle" x="93.5" y="-7.5" font-family="Helvetica,sans-Serif" font-size="10.00">Handler</text>
</a>
</g>
</g>
<!-- Node4&#45;&gt;Node2 -->
<g id="edge2" class="edge"><title>Node4&#45;&gt;Node2</title>
<path fill="none" stroke="#9a32cd" stroke-dasharray="5,2" d="M197.454,-28.7947C234.845,-31.6255 276.957,-34.8138 313.874,-37.6087"/>
<polygon fill="#9a32cd" stroke="#9a32cd" points="197.277,-25.2713 187.042,-28.0063 196.749,-32.2513 197.277,-25.2713"/>
<text text-anchor="middle" x="250.5" y="-38" font-family="Helvetica,sans-Serif" font-size="10.00"> _WebsocketHandler</text>
</g>
</g>
</svg>
