<?xml version="1.0" encoding="UTF-8" standalone="no"?>
<!DOCTYPE svg PUBLIC "-//W3C//DTD SVG 1.1//EN"
 "http://www.w3.org/Graphics/SVG/1.1/DTD/svg11.dtd">
<!-- Generated by graphviz version 2.38.0 (20140413.2041)
 -->
<!-- Title: SimpleWebSocketServerLibrary.SimpleWebSocketServer.SendBinaryMessageAsync Pages: 1 -->
<svg width="409pt" height="50pt"
 viewBox="0.00 0.00 409.00 50.00" xmlns="http://www.w3.org/2000/svg" xmlns:xlink="http://www.w3.org/1999/xlink">
<g id="graph0" class="graph" transform="scale(1 1) rotate(0) translate(4 46)">
<title>SimpleWebSocketServerLibrary.SimpleWebSocketServer.SendBinaryMessageAsync</title>
<polygon fill="white" stroke="none" points="-4,4 -4,-46 405,-46 405,4 -4,4"/>
<!-- Node11 -->
<g id="node1" class="node"><title>Node11</title>
<polygon fill="#bfbfbf" stroke="black" points="0,-0.5 0,-41.5 178,-41.5 178,-0.5 0,-0.5"/>
<text text-anchor="start" x="8" y="-29.5" font-family="Helvetica,sans-Serif" font-size="10.00">SimpleWebSocketServerLibrary.</text>
<text text-anchor="start" x="8" y="-18.5" font-family="Helvetica,sans-Serif" font-size="10.00">SimpleWebSocketServer.SendBinary</text>
<text text-anchor="middle" x="89" y="-7.5" font-family="Helvetica,sans-Serif" font-size="10.00">MessageAsync</text>
</g>
<!-- Node12 -->
<g id="node2" class="node"><title>Node12</title>
<g id="a_node2"><a xlink:href="interface_simple_web_socket_server_library_1_1_simple_web_socket_handler_1_1_i_web_socket_handler.html#a3d9b246d14117c85014486b3f5bb71c8" target="_top" xlink:title="Send a message to a specific client. ">
<polygon fill="white" stroke="black" points="214,-0.5 214,-41.5 401,-41.5 401,-0.5 214,-0.5"/>
<text text-anchor="start" x="222" y="-29.5" font-family="Helvetica,sans-Serif" font-size="10.00">SimpleWebSocketServerLibrary.</text>
<text text-anchor="start" x="222" y="-18.5" font-family="Helvetica,sans-Serif" font-size="10.00">SimpleWebSocketHandler.IWebSocket</text>
<text text-anchor="middle" x="307.5" y="-7.5" font-family="Helvetica,sans-Serif" font-size="10.00">Handler.SendMessage</text>
</a>
</g>
</g>
<!-- Node11&#45;&gt;Node12 -->
<g id="edge1" class="edge"><title>Node11&#45;&gt;Node12</title>
<path fill="none" stroke="midnightblue" d="M178.059,-21C186.557,-21 195.228,-21 203.851,-21"/>
<polygon fill="midnightblue" stroke="midnightblue" points="203.939,-24.5001 213.939,-21 203.939,-17.5001 203.939,-24.5001"/>
</g>
</g>
</svg>
