<?xml version="1.0" encoding="UTF-8" standalone="no"?>
<!DOCTYPE svg PUBLIC "-//W3C//DTD SVG 1.1//EN"
 "http://www.w3.org/Graphics/SVG/1.1/DTD/svg11.dtd">
<!-- Generated by graphviz version 2.38.0 (20140413.2041)
 -->
<!-- Title: SimpleWebSocketServerLibrary.SimpleWebSocketServer.StopAll Pages: 1 -->
<svg width="390pt" height="50pt"
 viewBox="0.00 0.00 390.00 50.00" xmlns="http://www.w3.org/2000/svg" xmlns:xlink="http://www.w3.org/1999/xlink">
<g id="graph0" class="graph" transform="scale(1 1) rotate(0) translate(4 46)">
<title>SimpleWebSocketServerLibrary.SimpleWebSocketServer.StopAll</title>
<polygon fill="white" stroke="none" points="-4,4 -4,-46 386,-46 386,4 -4,4"/>
<!-- Node38 -->
<g id="node1" class="node"><title>Node38</title>
<polygon fill="#bfbfbf" stroke="black" points="0,-6 0,-36 159,-36 159,-6 0,-6"/>
<text text-anchor="start" x="8" y="-24" font-family="Helvetica,sans-Serif" font-size="10.00">SimpleWebSocketServerLibrary.</text>
<text text-anchor="middle" x="79.5" y="-13" font-family="Helvetica,sans-Serif" font-size="10.00">SimpleWebSocketServer.StopAll</text>
</g>
<!-- Node39 -->
<g id="node2" class="node"><title>Node39</title>
<g id="a_node2"><a xlink:href="interface_simple_web_socket_server_library_1_1_simple_web_socket_handler_1_1_i_web_socket_handler.html#a9320e5c10e5afa670c1377b5c0e2f762" target="_top" xlink:title="Stops all connections. ">
<polygon fill="white" stroke="black" points="195,-0.5 195,-41.5 382,-41.5 382,-0.5 195,-0.5"/>
<text text-anchor="start" x="203" y="-29.5" font-family="Helvetica,sans-Serif" font-size="10.00">SimpleWebSocketServerLibrary.</text>
<text text-anchor="start" x="203" y="-18.5" font-family="Helvetica,sans-Serif" font-size="10.00">SimpleWebSocketHandler.IWebSocket</text>
<text text-anchor="middle" x="288.5" y="-7.5" font-family="Helvetica,sans-Serif" font-size="10.00">Handler.StopAll</text>
</a>
</g>
</g>
<!-- Node38&#45;&gt;Node39 -->
<g id="edge1" class="edge"><title>Node38&#45;&gt;Node39</title>
<path fill="none" stroke="midnightblue" d="M159.053,-21C167.438,-21 176.055,-21 184.666,-21"/>
<polygon fill="midnightblue" stroke="midnightblue" points="184.758,-24.5001 194.758,-21 184.758,-17.5001 184.758,-24.5001"/>
</g>
</g>
</svg>
