<?xml version="1.0" encoding="UTF-8" standalone="no"?>
<!DOCTYPE svg PUBLIC "-//W3C//DTD SVG 1.1//EN"
 "http://www.w3.org/Graphics/SVG/1.1/DTD/svg11.dtd">
<!-- Generated by graphviz version 2.38.0 (20140413.2041)
 -->
<!-- Title: SimpleWebSocketServerLibrary.SimpleWebSocketServer.StartServerAsync Pages: 1 -->
<svg width="446pt" height="50pt"
 viewBox="0.00 0.00 446.00 50.00" xmlns="http://www.w3.org/2000/svg" xmlns:xlink="http://www.w3.org/1999/xlink">
<g id="graph0" class="graph" transform="scale(1 1) rotate(0) translate(4 46)">
<title>SimpleWebSocketServerLibrary.SimpleWebSocketServer.StartServerAsync</title>
<polygon fill="white" stroke="none" points="-4,4 -4,-46 442,-46 442,4 -4,4"/>
<!-- Node35 -->
<g id="node1" class="node"><title>Node35</title>
<polygon fill="#bfbfbf" stroke="black" points="0,-6 0,-36 203,-36 203,-6 0,-6"/>
<text text-anchor="start" x="8" y="-24" font-family="Helvetica,sans-Serif" font-size="10.00">SimpleWebSocketServerLibrary.</text>
<text text-anchor="middle" x="101.5" y="-13" font-family="Helvetica,sans-Serif" font-size="10.00">SimpleWebSocketServer.StartServerAsync</text>
</g>
<!-- Node36 -->
<g id="node2" class="node"><title>Node36</title>
<g id="a_node2"><a xlink:href="interface_simple_web_socket_server_library_1_1_simple_web_socket_http_server_1_1_i_web_socket_http_server.html#ace7dda0ccffcbf99eb142e0b33ed3f54" target="_top" xlink:title="Starts a server within a task. ">
<polygon fill="white" stroke="black" points="239,-0.5 239,-41.5 438,-41.5 438,-0.5 239,-0.5"/>
<text text-anchor="start" x="247" y="-29.5" font-family="Helvetica,sans-Serif" font-size="10.00">SimpleWebSocketServerLibrary.</text>
<text text-anchor="start" x="247" y="-18.5" font-family="Helvetica,sans-Serif" font-size="10.00">SimpleWebSocketHttpServer.IWebSocket</text>
<text text-anchor="middle" x="338.5" y="-7.5" font-family="Helvetica,sans-Serif" font-size="10.00">HttpServer.RunServer</text>
</a>
</g>
</g>
<!-- Node35&#45;&gt;Node36 -->
<g id="edge1" class="edge"><title>Node35&#45;&gt;Node36</title>
<path fill="none" stroke="midnightblue" d="M203.184,-21C211.69,-21 220.316,-21 228.879,-21"/>
<polygon fill="midnightblue" stroke="midnightblue" points="228.892,-24.5001 238.892,-21 228.891,-17.5001 228.892,-24.5001"/>
</g>
</g>
</svg>
