<?xml version="1.0" encoding="UTF-8" standalone="no"?>
<!DOCTYPE svg PUBLIC "-//W3C//DTD SVG 1.1//EN"
 "http://www.w3.org/Graphics/SVG/1.1/DTD/svg11.dtd">
<!-- Generated by graphviz version 2.38.0 (20140413.2041)
 -->
<!-- Title: SimpleWebSocketServerLibrary.SimpleWebSocketHandler.IWebSocketHandler Pages: 1 -->
<svg width="195pt" height="128pt"
 viewBox="0.00 0.00 195.00 128.00" xmlns="http://www.w3.org/2000/svg" xmlns:xlink="http://www.w3.org/1999/xlink">
<g id="graph0" class="graph" transform="scale(1 1) rotate(0) translate(4 124)">
<title>SimpleWebSocketServerLibrary.SimpleWebSocketHandler.IWebSocketHandler</title>
<polygon fill="white" stroke="none" points="-4,4 -4,-124 191,-124 191,4 -4,4"/>
<!-- Node0 -->
<g id="node1" class="node"><title>Node0</title>
<polygon fill="#bfbfbf" stroke="black" points="0,-78.5 0,-119.5 187,-119.5 187,-78.5 0,-78.5"/>
<text text-anchor="start" x="8" y="-107.5" font-family="Helvetica,sans-Serif" font-size="10.00">SimpleWebSocketServerLibrary.</text>
<text text-anchor="start" x="8" y="-96.5" font-family="Helvetica,sans-Serif" font-size="10.00">SimpleWebSocketHandler.IWebSocket</text>
<text text-anchor="middle" x="93.5" y="-85.5" font-family="Helvetica,sans-Serif" font-size="10.00">Handler</text>
</g>
<!-- Node1 -->
<g id="node2" class="node"><title>Node1</title>
<g id="a_node2"><a xlink:href="class_simple_web_socket_server_library_1_1_simple_web_socket_handler_1_1_web_socket_handler.html" target="_top" xlink:title="Class contains handler for handeling multiple websocket clients and hubs. ">
<polygon fill="white" stroke="black" points="1,-0.5 1,-41.5 186,-41.5 186,-0.5 1,-0.5"/>
<text text-anchor="start" x="9" y="-29.5" font-family="Helvetica,sans-Serif" font-size="10.00">SimpleWebSocketServerLibrary.</text>
<text text-anchor="start" x="9" y="-18.5" font-family="Helvetica,sans-Serif" font-size="10.00">SimpleWebSocketHandler.WebSocket</text>
<text text-anchor="middle" x="93.5" y="-7.5" font-family="Helvetica,sans-Serif" font-size="10.00">Handler</text>
</a>
</g>
</g>
<!-- Node0&#45;&gt;Node1 -->
<g id="edge1" class="edge"><title>Node0&#45;&gt;Node1</title>
<path fill="none" stroke="midnightblue" d="M93.5,-68.2965C93.5,-59.3009 93.5,-49.6532 93.5,-41.5056"/>
<polygon fill="midnightblue" stroke="midnightblue" points="90.0001,-68.4281 93.5,-78.4281 97.0001,-68.4281 90.0001,-68.4281"/>
</g>
</g>
</svg>
