<?xml version="1.0" encoding="UTF-8" standalone="no"?>
<!DOCTYPE svg PUBLIC "-//W3C//DTD SVG 1.1//EN"
 "http://www.w3.org/Graphics/SVG/1.1/DTD/svg11.dtd">
<!-- Generated by graphviz version 2.38.0 (20140413.2041)
 -->
<!-- Title: SimpleWebSocketServerLibrary.SimpleWebSocketHttpServer.IWebSocketHttpServer.RunServer Pages: 1 -->
<svg width="446pt" height="88pt"
 viewBox="0.00 0.00 446.00 88.00" xmlns="http://www.w3.org/2000/svg" xmlns:xlink="http://www.w3.org/1999/xlink">
<g id="graph0" class="graph" transform="scale(1 1) rotate(0) translate(4 84)">
<title>SimpleWebSocketServerLibrary.SimpleWebSocketHttpServer.IWebSocketHttpServer.RunServer</title>
<polygon fill="white" stroke="none" points="-4,4 -4,-84 442,-84 442,4 -4,4"/>
<!-- Node1 -->
<g id="node1" class="node"><title>Node1</title>
<polygon fill="#bfbfbf" stroke="black" points="0,-19 0,-60 199,-60 199,-19 0,-19"/>
<text text-anchor="start" x="8" y="-48" font-family="Helvetica,sans-Serif" font-size="10.00">SimpleWebSocketServerLibrary.</text>
<text text-anchor="start" x="8" y="-37" font-family="Helvetica,sans-Serif" font-size="10.00">SimpleWebSocketHttpServer.IWebSocket</text>
<text text-anchor="middle" x="99.5" y="-26" font-family="Helvetica,sans-Serif" font-size="10.00">HttpServer.RunServer</text>
</g>
<!-- Node2 -->
<g id="node2" class="node"><title>Node2</title>
<g id="a_node2"><a xlink:href="class_simple_web_socket_server_library_1_1_simple_web_socket_server.html#a14730d592f2fdd3278a8df1403ebd672" target="_top" xlink:title="Starts running the server async. ">
<polygon fill="white" stroke="black" points="235,-49.5 235,-79.5 438,-79.5 438,-49.5 235,-49.5"/>
<text text-anchor="start" x="243" y="-67.5" font-family="Helvetica,sans-Serif" font-size="10.00">SimpleWebSocketServerLibrary.</text>
<text text-anchor="middle" x="336.5" y="-56.5" font-family="Helvetica,sans-Serif" font-size="10.00">SimpleWebSocketServer.StartServerAsync</text>
</a>
</g>
</g>
<!-- Node1&#45;&gt;Node2 -->
<g id="edge1" class="edge"><title>Node1&#45;&gt;Node2</title>
<path fill="none" stroke="midnightblue" d="M209.153,-51.0588C217.716,-51.9698 226.343,-52.8876 234.849,-53.7925"/>
<polygon fill="midnightblue" stroke="midnightblue" points="209.454,-47.5712 199.14,-49.9936 208.713,-54.5319 209.454,-47.5712"/>
</g>
<!-- Node3 -->
<g id="node3" class="node"><title>Node3</title>
<g id="a_node3"><a xlink:href="class_simple_web_socket_server_library_1_1_simple_web_socket_server.html#ad354c38a3f5583fe213ab913085c320a" target="_top" xlink:title="Starts running the server async. ">
<polygon fill="white" stroke="black" points="248.5,-0.5 248.5,-30.5 424.5,-30.5 424.5,-0.5 248.5,-0.5"/>
<text text-anchor="start" x="256.5" y="-18.5" font-family="Helvetica,sans-Serif" font-size="10.00">SimpleWebSocketServerLibrary.</text>
<text text-anchor="middle" x="336.5" y="-7.5" font-family="Helvetica,sans-Serif" font-size="10.00">SimpleWebSocketServer.StartServer</text>
</a>
</g>
</g>
<!-- Node1&#45;&gt;Node3 -->
<g id="edge2" class="edge"><title>Node1&#45;&gt;Node3</title>
<path fill="none" stroke="midnightblue" d="M209.141,-28.4048C222.271,-27.0638 235.55,-25.7076 248.317,-24.4038"/>
<polygon fill="midnightblue" stroke="midnightblue" points="208.732,-24.9282 199.14,-29.4262 209.444,-31.892 208.732,-24.9282"/>
</g>
</g>
</svg>
