<?xml version="1.0" encoding="UTF-8" standalone="no"?>
<!DOCTYPE svg PUBLIC "-//W3C//DTD SVG 1.1//EN"
 "http://www.w3.org/Graphics/SVG/1.1/DTD/svg11.dtd">
<!-- Generated by graphviz version 2.38.0 (20140413.2041)
 -->
<!-- Title: SimpleWebSocketServerLibrary.SimpleWebSocketHandler.IWebSocketHandler.StopAll Pages: 1 -->
<svg width="418pt" height="88pt"
 viewBox="0.00 0.00 418.00 88.00" xmlns="http://www.w3.org/2000/svg" xmlns:xlink="http://www.w3.org/1999/xlink">
<g id="graph0" class="graph" transform="scale(1 1) rotate(0) translate(4 84)">
<title>SimpleWebSocketServerLibrary.SimpleWebSocketHandler.IWebSocketHandler.StopAll</title>
<polygon fill="white" stroke="none" points="-4,4 -4,-84 414,-84 414,4 -4,4"/>
<!-- Node15 -->
<g id="node1" class="node"><title>Node15</title>
<polygon fill="#bfbfbf" stroke="black" points="0,-19 0,-60 187,-60 187,-19 0,-19"/>
<text text-anchor="start" x="8" y="-48" font-family="Helvetica,sans-Serif" font-size="10.00">SimpleWebSocketServerLibrary.</text>
<text text-anchor="start" x="8" y="-37" font-family="Helvetica,sans-Serif" font-size="10.00">SimpleWebSocketHandler.IWebSocket</text>
<text text-anchor="middle" x="93.5" y="-26" font-family="Helvetica,sans-Serif" font-size="10.00">Handler.StopAll</text>
</g>
<!-- Node16 -->
<g id="node2" class="node"><title>Node16</title>
<g id="a_node2"><a xlink:href="class_simple_web_socket_server_library_1_1_simple_web_socket_server.html#a1bb139b6266636ee732e584926844fdf" target="_top" xlink:title="Stops all connections with all clients asynchronous. Can provide reason. ">
<polygon fill="white" stroke="black" points="223,-49.5 223,-79.5 410,-79.5 410,-49.5 223,-49.5"/>
<text text-anchor="start" x="231" y="-67.5" font-family="Helvetica,sans-Serif" font-size="10.00">SimpleWebSocketServerLibrary.</text>
<text text-anchor="middle" x="316.5" y="-56.5" font-family="Helvetica,sans-Serif" font-size="10.00">SimpleWebSocketServer.StopAllAsync</text>
</a>
</g>
</g>
<!-- Node15&#45;&gt;Node16 -->
<g id="edge1" class="edge"><title>Node15&#45;&gt;Node16</title>
<path fill="none" stroke="midnightblue" d="M197.283,-51.1271C205.854,-52.0966 214.487,-53.0732 222.974,-54.0333"/>
<polygon fill="midnightblue" stroke="midnightblue" points="197.593,-47.6399 187.263,-49.9936 196.806,-54.5955 197.593,-47.6399"/>
</g>
<!-- Node17 -->
<g id="node3" class="node"><title>Node17</title>
<g id="a_node3"><a xlink:href="class_simple_web_socket_server_library_1_1_simple_web_socket_server.html#ad80184887910735a4caa22b903ee5fd1" target="_top" xlink:title="Stops all connections with all clients synchronous. Can provide reason. ">
<polygon fill="white" stroke="black" points="237,-0.5 237,-30.5 396,-30.5 396,-0.5 237,-0.5"/>
<text text-anchor="start" x="245" y="-18.5" font-family="Helvetica,sans-Serif" font-size="10.00">SimpleWebSocketServerLibrary.</text>
<text text-anchor="middle" x="316.5" y="-7.5" font-family="Helvetica,sans-Serif" font-size="10.00">SimpleWebSocketServer.StopAll</text>
</a>
</g>
</g>
<!-- Node15&#45;&gt;Node17 -->
<g id="edge2" class="edge"><title>Node15&#45;&gt;Node17</title>
<path fill="none" stroke="midnightblue" d="M197.395,-28.3259C210.699,-26.8811 224.151,-25.4203 236.974,-24.0278"/>
<polygon fill="midnightblue" stroke="midnightblue" points="196.827,-24.8669 187.263,-29.4262 197.583,-31.826 196.827,-24.8669"/>
</g>
</g>
</svg>
