<?xml version="1.0" encoding="UTF-8" standalone="no"?>
<!DOCTYPE svg PUBLIC "-//W3C//DTD SVG 1.1//EN"
 "http://www.w3.org/Graphics/SVG/1.1/DTD/svg11.dtd">
<!-- Generated by graphviz version 2.38.0 (20140413.2041)
 -->
<!-- Title: SimpleWebSocketServerLibrary.SimpleWebSocketHttpServer.IWebSocketHttpServer Pages: 1 -->
<svg width="207pt" height="128pt"
 viewBox="0.00 0.00 207.00 128.00" xmlns="http://www.w3.org/2000/svg" xmlns:xlink="http://www.w3.org/1999/xlink">
<g id="graph0" class="graph" transform="scale(1 1) rotate(0) translate(4 124)">
<title>SimpleWebSocketServerLibrary.SimpleWebSocketHttpServer.IWebSocketHttpServer</title>
<polygon fill="white" stroke="none" points="-4,4 -4,-124 203,-124 203,4 -4,4"/>
<!-- Node0 -->
<g id="node1" class="node"><title>Node0</title>
<polygon fill="#bfbfbf" stroke="black" points="0,-78.5 0,-119.5 199,-119.5 199,-78.5 0,-78.5"/>
<text text-anchor="start" x="8" y="-107.5" font-family="Helvetica,sans-Serif" font-size="10.00">SimpleWebSocketServerLibrary.</text>
<text text-anchor="start" x="8" y="-96.5" font-family="Helvetica,sans-Serif" font-size="10.00">SimpleWebSocketHttpServer.IWebSocket</text>
<text text-anchor="middle" x="99.5" y="-85.5" font-family="Helvetica,sans-Serif" font-size="10.00">HttpServer</text>
</g>
<!-- Node1 -->
<g id="node2" class="node"><title>Node1</title>
<g id="a_node2"><a xlink:href="class_simple_web_socket_server_library_1_1_simple_web_socket_http_server_1_1_web_socket_http_server.html" target="_top" xlink:title="Runs the http server where a client needs to connect to. ">
<polygon fill="white" stroke="black" points="1,-0.5 1,-41.5 198,-41.5 198,-0.5 1,-0.5"/>
<text text-anchor="start" x="9" y="-29.5" font-family="Helvetica,sans-Serif" font-size="10.00">SimpleWebSocketServerLibrary.</text>
<text text-anchor="start" x="9" y="-18.5" font-family="Helvetica,sans-Serif" font-size="10.00">SimpleWebSocketHttpServer.WebSocket</text>
<text text-anchor="middle" x="99.5" y="-7.5" font-family="Helvetica,sans-Serif" font-size="10.00">HttpServer</text>
</a>
</g>
</g>
<!-- Node0&#45;&gt;Node1 -->
<g id="edge1" class="edge"><title>Node0&#45;&gt;Node1</title>
<path fill="none" stroke="midnightblue" d="M99.5,-68.2965C99.5,-59.3009 99.5,-49.6532 99.5,-41.5056"/>
<polygon fill="midnightblue" stroke="midnightblue" points="96.0001,-68.4281 99.5,-78.4281 103,-68.4281 96.0001,-68.4281"/>
</g>
</g>
</svg>
