<?xml version="1.0" encoding="UTF-8" standalone="no"?>
<!DOCTYPE svg PUBLIC "-//W3C//DTD SVG 1.1//EN"
 "http://www.w3.org/Graphics/SVG/1.1/DTD/svg11.dtd">
<!-- Generated by graphviz version 2.38.0 (20140413.2041)
 -->
<!-- Title: SimpleWebSocketServerLibrary.SimpleWebSocketHandler.IWebSocketHandler.SendMessage Pages: 1 -->
<svg width="471pt" height="405pt"
 viewBox="0.00 0.00 471.00 405.00" xmlns="http://www.w3.org/2000/svg" xmlns:xlink="http://www.w3.org/1999/xlink">
<g id="graph0" class="graph" transform="scale(1 1) rotate(0) translate(4 401)">
<title>SimpleWebSocketServerLibrary.SimpleWebSocketHandler.IWebSocketHandler.SendMessage</title>
<polygon fill="white" stroke="none" points="-4,4 -4,-401 467,-401 467,4 -4,4"/>
<!-- Node1 -->
<g id="node1" class="node"><title>Node1</title>
<polygon fill="#bfbfbf" stroke="black" points="0,-169 0,-210 187,-210 187,-169 0,-169"/>
<text text-anchor="start" x="8" y="-198" font-family="Helvetica,sans-Serif" font-size="10.00">SimpleWebSocketServerLibrary.</text>
<text text-anchor="start" x="8" y="-187" font-family="Helvetica,sans-Serif" font-size="10.00">SimpleWebSocketHandler.IWebSocket</text>
<text text-anchor="middle" x="93.5" y="-176" font-family="Helvetica,sans-Serif" font-size="10.00">Handler.SendMessage</text>
</g>
<!-- Node2 -->
<g id="node2" class="node"><title>Node2</title>
<g id="a_node2"><a xlink:href="class_simple_web_socket_server_library_1_1_simple_web_socket_server.html#aefe75fd888dea52bd64108dd03abed61" target="_top" xlink:title="Overload method for sending text messages to a specific client, using it&#39;s id, asynchronous. ">
<polygon fill="white" stroke="black" points="225,-366.5 225,-396.5 461,-396.5 461,-366.5 225,-366.5"/>
<text text-anchor="start" x="233" y="-384.5" font-family="Helvetica,sans-Serif" font-size="10.00">SimpleWebSocketServerLibrary.</text>
<text text-anchor="middle" x="343" y="-373.5" font-family="Helvetica,sans-Serif" font-size="10.00">SimpleWebSocketServer.SendTextMessageAsync</text>
</a>
</g>
</g>
<!-- Node1&#45;&gt;Node2 -->
<g id="edge1" class="edge"><title>Node1&#45;&gt;Node2</title>
<path fill="none" stroke="midnightblue" d="M108.689,-219.288C128.604,-257.677 168.596,-323.511 223,-357.5 228.541,-360.962 234.485,-363.937 240.653,-366.493"/>
<polygon fill="midnightblue" stroke="midnightblue" points="111.703,-217.494 104.061,-210.156 105.459,-220.658 111.703,-217.494"/>
</g>
<!-- Node3 -->
<g id="node3" class="node"><title>Node3</title>
<g id="a_node3"><a xlink:href="class_simple_web_socket_server_library_1_1_simple_web_socket_server.html#a4ea5479402f769e2e73a8bcc06b654b1" target="_top" xlink:title="Overload method for sending text messages to a specific client, using it&#39;s id, synchronous. ">
<polygon fill="white" stroke="black" points="238.5,-317.5 238.5,-347.5 447.5,-347.5 447.5,-317.5 238.5,-317.5"/>
<text text-anchor="start" x="246.5" y="-335.5" font-family="Helvetica,sans-Serif" font-size="10.00">SimpleWebSocketServerLibrary.</text>
<text text-anchor="middle" x="343" y="-324.5" font-family="Helvetica,sans-Serif" font-size="10.00">SimpleWebSocketServer.SendTextMessage</text>
</a>
</g>
</g>
<!-- Node1&#45;&gt;Node3 -->
<g id="edge2" class="edge"><title>Node1&#45;&gt;Node3</title>
<path fill="none" stroke="midnightblue" d="M117.296,-217.857C140.838,-245.151 180.097,-285.439 223,-307.5 230.604,-311.41 238.78,-314.708 247.157,-317.491"/>
<polygon fill="midnightblue" stroke="midnightblue" points="119.93,-215.552 110.795,-210.185 114.589,-220.077 119.93,-215.552"/>
</g>
<!-- Node4 -->
<g id="node4" class="node"><title>Node4</title>
<g id="a_node4"><a xlink:href="class_simple_web_socket_server_library_1_1_simple_web_socket_server.html#a9d94bdf3e2964c65cafc62a80102a28c" target="_top" xlink:title="Sends a binary &quot;message&quot; to a specific client asynchronous. ">
<polygon fill="white" stroke="black" points="254,-257 254,-298 432,-298 432,-257 254,-257"/>
<text text-anchor="start" x="262" y="-286" font-family="Helvetica,sans-Serif" font-size="10.00">SimpleWebSocketServerLibrary.</text>
<text text-anchor="start" x="262" y="-275" font-family="Helvetica,sans-Serif" font-size="10.00">SimpleWebSocketServer.SendBinary</text>
<text text-anchor="middle" x="343" y="-264" font-family="Helvetica,sans-Serif" font-size="10.00">MessageAsync</text>
</a>
</g>
</g>
<!-- Node1&#45;&gt;Node4 -->
<g id="edge3" class="edge"><title>Node1&#45;&gt;Node4</title>
<path fill="none" stroke="midnightblue" d="M144.189,-214.409C167.688,-225.542 196.374,-238.217 223,-247.5 232.858,-250.937 243.302,-254.157 253.746,-257.118"/>
<polygon fill="midnightblue" stroke="midnightblue" points="145.653,-211.23 135.122,-210.069 142.631,-217.544 145.653,-211.23"/>
</g>
<!-- Node5 -->
<g id="node5" class="node"><title>Node5</title>
<g id="a_node5"><a xlink:href="class_simple_web_socket_server_library_1_1_simple_web_socket_server.html#ac6ddccc7dd4b54d16721d2dca025dc58" target="_top" xlink:title="Sends a binary &quot;message&quot; to a specific client synchronous. ">
<polygon fill="white" stroke="black" points="254,-197 254,-238 432,-238 432,-197 254,-197"/>
<text text-anchor="start" x="262" y="-226" font-family="Helvetica,sans-Serif" font-size="10.00">SimpleWebSocketServerLibrary.</text>
<text text-anchor="start" x="262" y="-215" font-family="Helvetica,sans-Serif" font-size="10.00">SimpleWebSocketServer.SendBinary</text>
<text text-anchor="middle" x="343" y="-204" font-family="Helvetica,sans-Serif" font-size="10.00">Message</text>
</a>
</g>
</g>
<!-- Node1&#45;&gt;Node5 -->
<g id="edge4" class="edge"><title>Node1&#45;&gt;Node5</title>
<path fill="none" stroke="midnightblue" d="M197.075,-201.104C215.881,-203.232 235.358,-205.435 253.701,-207.511"/>
<polygon fill="midnightblue" stroke="midnightblue" points="197.342,-197.612 187.012,-199.966 196.555,-204.568 197.342,-197.612"/>
</g>
<!-- Node6 -->
<g id="node6" class="node"><title>Node6</title>
<g id="a_node6"><a xlink:href="class_simple_web_socket_server_library_1_1_simple_web_socket_server.html#a7f0eca90a424040685527ac873c31229" target="_top" xlink:title="Sends a ping message to all clients asynchronous, can have message. ">
<polygon fill="white" stroke="black" points="224.5,-147.5 224.5,-177.5 461.5,-177.5 461.5,-147.5 224.5,-147.5"/>
<text text-anchor="start" x="232.5" y="-165.5" font-family="Helvetica,sans-Serif" font-size="10.00">SimpleWebSocketServerLibrary.</text>
<text text-anchor="middle" x="343" y="-154.5" font-family="Helvetica,sans-Serif" font-size="10.00">SimpleWebSocketServer.SendPingMessageAsync</text>
</a>
</g>
</g>
<!-- Node1&#45;&gt;Node6 -->
<g id="edge5" class="edge"><title>Node1&#45;&gt;Node6</title>
<path fill="none" stroke="midnightblue" d="M197.123,-178.305C206.146,-177.32 215.323,-176.319 224.456,-175.323"/>
<polygon fill="midnightblue" stroke="midnightblue" points="196.573,-174.844 187.012,-179.408 197.332,-181.803 196.573,-174.844"/>
</g>
<!-- Node7 -->
<g id="node7" class="node"><title>Node7</title>
<g id="a_node7"><a xlink:href="class_simple_web_socket_server_library_1_1_simple_web_socket_server.html#ab47f01467513ad98f0d9de69d41e12a5" target="_top" xlink:title="Sends a ping message to all clients synchronous, can have message. ">
<polygon fill="white" stroke="black" points="238.5,-98.5 238.5,-128.5 447.5,-128.5 447.5,-98.5 238.5,-98.5"/>
<text text-anchor="start" x="246.5" y="-116.5" font-family="Helvetica,sans-Serif" font-size="10.00">SimpleWebSocketServerLibrary.</text>
<text text-anchor="middle" x="343" y="-105.5" font-family="Helvetica,sans-Serif" font-size="10.00">SimpleWebSocketServer.SendPingMessage</text>
</a>
</g>
</g>
<!-- Node1&#45;&gt;Node7 -->
<g id="edge6" class="edge"><title>Node1&#45;&gt;Node7</title>
<path fill="none" stroke="midnightblue" d="M150.139,-165.013C172.482,-155.816 198.667,-145.826 223,-138.5 235.23,-134.818 248.325,-131.48 261.194,-128.529"/>
<polygon fill="midnightblue" stroke="midnightblue" points="148.701,-161.82 140.815,-168.895 151.392,-168.282 148.701,-161.82"/>
</g>
<!-- Node8 -->
<g id="node8" class="node"><title>Node8</title>
<g id="a_node8"><a xlink:href="class_simple_web_socket_server_library_1_1_simple_web_socket_server.html#a20bd2a898b9465f492a5b19c4a8e1021" target="_top" xlink:title="Send pong message to all available clients asynchronous, can have message. ">
<polygon fill="white" stroke="black" points="223,-49.5 223,-79.5 463,-79.5 463,-49.5 223,-49.5"/>
<text text-anchor="start" x="231" y="-67.5" font-family="Helvetica,sans-Serif" font-size="10.00">SimpleWebSocketServerLibrary.</text>
<text text-anchor="middle" x="343" y="-56.5" font-family="Helvetica,sans-Serif" font-size="10.00">SimpleWebSocketServer.SendPongMessageAsync</text>
</a>
</g>
</g>
<!-- Node1&#45;&gt;Node8 -->
<g id="edge7" class="edge"><title>Node1&#45;&gt;Node8</title>
<path fill="none" stroke="midnightblue" d="M122.225,-161.754C146.681,-138.893 184.355,-107.42 223,-89.5 231.331,-85.6368 240.267,-82.3647 249.361,-79.5943"/>
<polygon fill="midnightblue" stroke="midnightblue" points="119.602,-159.419 114.765,-168.845 124.425,-164.492 119.602,-159.419"/>
</g>
<!-- Node9 -->
<g id="node9" class="node"><title>Node9</title>
<g id="a_node9"><a xlink:href="class_simple_web_socket_server_library_1_1_simple_web_socket_server.html#af1f35a19ed0272c0bd02bf51f175b4b7" target="_top" xlink:title="Send pong message to all available clients synchronous, can have message. ">
<polygon fill="white" stroke="black" points="237,-0.5 237,-30.5 449,-30.5 449,-0.5 237,-0.5"/>
<text text-anchor="start" x="245" y="-18.5" font-family="Helvetica,sans-Serif" font-size="10.00">SimpleWebSocketServerLibrary.</text>
<text text-anchor="middle" x="343" y="-7.5" font-family="Helvetica,sans-Serif" font-size="10.00">SimpleWebSocketServer.SendPongMessage</text>
</a>
</g>
</g>
<!-- Node1&#45;&gt;Node9 -->
<g id="edge8" class="edge"><title>Node1&#45;&gt;Node9</title>
<path fill="none" stroke="midnightblue" d="M111.396,-160.237C132.815,-125.918 173.039,-69.9816 223,-40.5 229.545,-36.6377 236.603,-33.3672 243.899,-30.5986"/>
<polygon fill="midnightblue" stroke="midnightblue" points="108.339,-158.527 106.111,-168.885 114.312,-162.178 108.339,-158.527"/>
</g>
</g>
</svg>
